<?xml version="1.0"?>
<svg xmlns="http://www.w3.org/2000/svg" xmlns:xlink="http://www.w3.org/1999/xlink" xmlns:svgjs="http://svgjs.com/svgjs" version="1.1" width="512px" height="512px" x="0" y="0" viewBox="0 0 512.001 512.001" style="enable-background:new 0 0 512 512" xml:space="preserve" class=""><g>
<g>
	<g id="Page-1_2_">
		<g id="view_export_2_" transform="translate(-296.000000, -192.000000)">
			<path id="bridge_x2C_-viaduct_x2C_-road_x2C_-highway_x2C_-car_x2C_-elevation" d="M642.353,528.553     c8.317,0,15.059,6.742,15.059,15.059c0,8.317-6.742,15.059-15.059,15.059H552c-8.317,0-15.059-6.742-15.059-15.059     c0-8.317,6.742-15.059,15.059-15.059v-81.805c-29.426,17.069-45.176,37.572-45.176,59.217c0,40.611,18.063,76.736,55.093,109.138     c6.259,5.477,6.893,14.99,1.417,21.249c-5.477,6.259-14.99,6.893-21.249,1.417c-43.283-37.873-65.378-82.062-65.378-131.804     c0-79.767,123.143-135.529,316.235-135.529c8.317,0,15.059,6.742,15.059,15.059s-6.742,15.059-15.059,15.059v75.294     c8.317,0,15.059,6.742,15.059,15.059c0,8.317-6.742,15.059-15.059,15.059h-90.353c-8.317,0-15.059-6.742-15.059-15.059     c0-8.317,6.742-15.059,15.059-15.059v-70.669c-21.706,2.358-41.821,5.566-60.235,9.503V528.553L642.353,528.553z      M732.706,402.488v73.36h30.118v-74.83C752.54,401.341,742.499,401.832,732.706,402.488z M609.318,423.142     c-9.676,2.93-18.752,6.113-27.201,9.53v95.882h30.118V423.142H609.318z M361.87,619.122c4.039,7.27,1.42,16.438-5.851,20.477     c-7.27,4.039-16.438,1.42-20.477-5.851C309.242,586.408,296,538.738,296,490.906c0-160.838,183.578-254.812,497.966-233.377     c8.298,0.566,14.565,7.751,14,16.048s-7.751,14.565-16.048,14c-299.372-20.412-465.799,64.783-465.799,203.329     C326.118,533.428,337.974,576.11,361.87,619.122z M440.284,589.076c3.999,7.292,1.33,16.445-5.962,20.445     c-7.292,3.999-16.445,1.33-20.445-5.962c-3.925-7.156-7.433-14.394-10.523-21.712c-3.235-7.662,0.354-16.495,8.016-19.73     c7.662-3.235,16.495,0.354,19.73,8.016C433.788,576.498,436.849,582.813,440.284,589.076z M416.51,502.293     c0.171,8.315-6.431,15.194-14.745,15.366c-8.315,0.171-15.195-6.431-15.366-14.745c-0.03-1.479-0.046-2.96-0.046-4.446     c0-7.205,0.699-14.316,2.092-21.333c1.62-8.158,9.546-13.457,17.703-11.838c8.158,1.62,13.457,9.546,11.838,17.703     c-1.01,5.085-1.515,10.231-1.515,15.465C416.471,499.743,416.484,501.019,416.51,502.293z M452.075,427.238     c-6.109,5.643-15.637,5.265-21.28-0.844c-5.643-6.109-5.265-15.637,0.844-21.28c5.763-5.323,12.041-10.464,18.815-15.41     c6.717-4.904,16.138-3.435,21.042,3.282c4.904,6.717,3.435,16.138-3.282,21.042C462.358,418.305,456.973,422.714,452.075,427.238     z M531.111,380.402c-7.73,3.069-16.484-0.708-19.553-8.438c-3.069-7.73,0.708-16.484,8.438-19.553     c7.077-2.81,14.396-5.492,21.948-8.041c7.88-2.66,16.424,1.572,19.084,9.452c2.66,7.88-1.572,16.424-9.452,19.084     C544.517,375.288,537.693,377.788,531.111,380.402z M623.153,354.395c-8.168,1.565-16.058-3.789-17.623-11.957     c-1.565-8.168,3.789-16.058,11.957-17.623c7.442-1.426,15.022-2.749,22.734-3.969c8.215-1.3,15.927,4.306,17.227,12.521     c1.299,8.215-4.306,15.927-12.521,17.227C637.533,351.763,630.273,353.031,623.153,354.395z M717.514,342.585     c-8.298,0.553-15.474-5.727-16.026-14.025c-0.553-8.298,5.727-15.473,14.025-16.026c7.551-0.503,15.189-0.919,22.911-1.25     c8.309-0.355,15.333,6.093,15.688,14.402c0.355,8.309-6.093,15.333-14.402,15.688     C732.225,341.694,724.825,342.098,717.514,342.585z" fill="#be8553" data-original="#000000"/>
		</g>
	</g>
</g>















</g></svg>
