<svg xmlns="http://www.w3.org/2000/svg" fill="#be8553" xmlns:xlink="http://www.w3.org/1999/xlink" id="Capa_1" x="0px" y="0px" viewBox="0 0 464 464" style="enable-background:new 0 0 464 464;" xml:space="preserve">
	<g>
		<path d="M456,416v-96c0-4.418-3.582-8-8-8H304v-8c0-0.162-0.015-0.32-0.024-0.479c0.138-2.112-0.551-4.275-2.102-5.952  C295.79,290.988,280,269.254,280,248c0-2.442-1.095-4.63-2.82-6.098c-1.573-1.716-3.319-3.311-5.185-4.807  c0-0.032,0.005-0.063,0.005-0.096v-69c0-4.418-3.582-8-8-8v-40c0-0.017-0.002-0.033-0.002-0.05  c-0.001-0.184-0.014-0.37-0.028-0.555c-0.007-0.088-0.009-0.177-0.019-0.264c-0.016-0.142-0.042-0.284-0.065-0.426  c-0.021-0.13-0.04-0.261-0.067-0.389c-0.021-0.098-0.05-0.195-0.075-0.292c-0.043-0.168-0.085-0.335-0.138-0.498  c-0.006-0.019-0.009-0.037-0.016-0.056l-16-48C246.501,66.203,243.443,64,240,64V40c0-4.418-3.582-8-8-8s-8,3.582-8,8v24  c-3.443,0-6.501,2.203-7.59,5.47l-16,48c-0.006,0.019-0.01,0.038-0.016,0.056c-0.053,0.163-0.096,0.331-0.138,0.498  c-0.025,0.098-0.054,0.195-0.075,0.292c-0.027,0.128-0.046,0.259-0.067,0.389c-0.023,0.142-0.049,0.284-0.065,0.426  c-0.01,0.087-0.012,0.176-0.019,0.264c-0.014,0.185-0.027,0.37-0.028,0.555c0,0.017-0.002,0.033-0.002,0.05v40  c-4.418,0-8,3.582-8,8v68.334c-2.115,1.604-4.078,3.336-5.834,5.208c-1.392,1.483-2.166,3.44-2.166,5.475V248  c0,21.254-15.79,42.988-21.874,49.569c-1.551,1.677-2.24,3.839-2.102,5.952C160.015,303.68,160,303.838,160,304v8H16  c-4.418,0-8,3.582-8,8v96c-4.418,0-8,3.582-8,8s3.582,8,8,8h72c4.418,0,8-3.582,8-8s-3.582-8-8-8v-32.111  C80,375.128,87.128,368,95.889,368s15.889,7.128,15.889,15.889v32.134c-4.21,0.232-7.555,3.71-7.555,7.978c0,4.418,3.582,8,8,8H208  c4.418,0,8-3.582,8-8s-3.582-8-8-8v-40c0-13.233,10.767-24,24-24s24,10.767,24,24v40c-4.418,0-8,3.582-8,8s3.582,8,8,8h95.777  c4.418,0,8-3.582,8-8c0-4.268-3.345-7.745-7.555-7.978v-32.134c0-8.761,7.128-15.889,15.889-15.889S384,375.128,384,383.889V416  c-4.418,0-8,3.582-8,8s3.582,8,8,8h72c4.418,0,8-3.582,8-8S460.418,416,456,416z M244.9,112H219.1l10.666-32h4.469L244.9,112z   M216,128h32v32h-8v-16c0-4.418-3.582-8-8-8s-8,3.582-8,8v16h-8V128z M208,176h48v52.236c-7.485-2.739-15.824-4.236-24.494-4.236  c-8.248,0-16.252,1.378-23.506,3.905V176z M199.948,250.45c7.509-6.586,19.055-10.45,31.558-10.45  c12.995,0,25.203,4.318,32.594,11.401c0.97,16.704,8.848,33.011,16.48,44.599h-97.161  C191.196,284.193,199.23,267.486,199.948,250.45z M95.889,352C78.306,352,64,366.306,64,383.889V416H24v-88h136v88h-32.223v-32.111  C127.777,366.306,113.472,352,95.889,352z M232,336c-22.056,0-40,17.944-40,40v40h-16V312h112v104h-16v-40  C272,353.944,254.056,336,232,336z M368.111,352c-17.583,0-31.889,14.306-31.889,31.889V416H304v-88h136v88h-40v-32.111  C400,366.306,385.694,352,368.111,352z">
		</path>
		<path d="M248,200c0-8.822-7.178-16-16-16s-16,7.178-16,16s7.178,16,16,16S248,208.822,248,200z">
		</path>
	</g>
	<g>
	</g>
	<g>
	</g>
	<g>
	</g>
	<g>
	</g>
	<g>
	</g>
	<g>
	</g>
	<g>
	</g>
	<g>
	</g>
	<g>
	</g>
	<g>
	</g>
	<g>
	</g>
	<g>
	</g>
	<g>
	</g>
	<g>
	</g>
	<g>
	</g>
</svg>
