<svg xmlns="http://www.w3.org/2000/svg" fill="#be8553" xmlns:xlink="http://www.w3.org/1999/xlink" id="Capa_1" x="0px" y="0px" viewBox="0 0 460 460" style="enable-background:new 0 0 460 460;" xml:space="preserve">
<path id="XMLID_1090_" d="M390.419,13.834c-1.684-1.379-3.896-1.932-6.031-1.506L273.093,34.587  c-3.396,0.679-5.841,3.661-5.841,7.125v2.806h-29.986V7.266C237.266,3.253,234.013,0,230,0h-44.518  c-4.013,0-7.266,3.253-7.266,7.266v37.252h-11.933c2.604-4.398,4.105-9.522,4.105-14.993C170.388,13.245,157.144,0,140.863,0  s-29.525,13.245-29.525,29.525c0,5.628,1.585,10.893,4.329,15.374c-27.4,3.173-48.746,26.505-48.746,54.742v25.013  c0,4.013,3.253,7.266,7.266,7.266h28.201c4.013,0,7.266-3.253,7.266-7.266v-19.455c0-10.924,8.887-19.811,19.811-19.811h48.751  v7.802c-38.128,8.273-66.777,42.271-66.777,82.841v276.704c0,4.013,3.253,7.266,7.266,7.266h178.072  c4.013,0,7.266-3.253,7.266-7.266V176.03c0-40.569-28.649-74.567-66.777-82.841v-7.802h29.986v2.856  c0,3.464,2.445,6.446,5.841,7.125l111.295,22.259c0.473,0.095,0.95,0.141,1.425,0.141c1.665,0,3.296-0.573,4.606-1.647  c1.684-1.38,2.659-3.442,2.659-5.619v-91.05C393.079,17.276,392.103,15.214,390.419,13.834z M192.748,14.532h29.986v74.504h-29.986  V14.532z M140.863,14.532c8.267,0,14.993,6.726,14.993,14.993s-6.726,14.993-14.993,14.993s-14.993-6.726-14.993-14.993  S132.596,14.532,140.863,14.532z M129.466,70.856c-18.937,0-34.343,15.406-34.343,34.343v12.189H81.453V99.641  c0-22.382,18.209-40.591,40.591-40.591h56.172v11.807H129.466z M125.971,445.468v-15.922h163.54v15.922H125.971z M289.511,176.03  v238.984h-163.54V176.03c0-38.729,31.508-70.237,70.237-70.237h23.067C258.003,105.793,289.511,137.302,289.511,176.03z   M237.266,70.856V59.05h29.986v11.807H237.266z M378.547,101.64l-96.763-19.353V47.668l96.763-19.353V101.64z"></path>
<g>
</g>
<g>
</g>
<g>
</g>
<g>
</g>
<g>
</g>
<g>
</g>
<g>
</g>
<g>
</g>
<g>
</g>
<g>
</g>
<g>
</g>
<g>
</g>
<g>
</g>
<g>
</g>
<g>
</g>
</svg>