<svg xmlns="http://www.w3.org/2000/svg" fill="#be8553" xmlns:xlink="http://www.w3.org/1999/xlink" id="Layer_1" x="0px" y="0px" viewBox="0 0 512 512" style="enable-background:new 0 0 512 512;" xml:space="preserve">
<g>
	<g>
		<path d="M380.198,249.067c-28.589,0-51.848,23.259-51.848,51.848s23.259,51.848,51.848,51.848    c28.589,0,51.848-23.258,51.848-51.848C432.046,272.326,408.787,249.067,380.198,249.067z M380.198,337.555    c-20.203,0-36.64-16.437-36.64-36.64c0-20.203,16.437-36.64,36.64-36.64c20.203,0,36.64,16.437,36.64,36.64    C416.838,321.118,400.401,337.555,380.198,337.555z"></path>
	</g>
</g>
<g>
	<g>
		<path d="M155.827,276.89v-33.901h-48.051v33.901H73.875v48.05h33.901v33.901h48.051V324.94h33.901v-48.05H155.827z     M174.521,309.732H140.62v33.901h-17.635v-33.901H89.083v-17.634h33.901v-33.901h17.635v33.901h33.902V309.732z"></path>
	</g>
</g>
<g>
	<g>
		<path d="M319.156,94.491H512V79.283H319.156c-39.017,0-70.76,31.743-70.76,70.76v19.07H131.802    C59.126,169.113,0,228.238,0,300.915s59.126,131.802,131.802,131.802c44.254,0,84.846-21.722,109.426-58.322h29.544    c24.58,36.601,65.172,58.322,109.426,58.322c72.676,0,131.802-59.125,131.802-131.802s-59.126-131.802-131.802-131.802H263.604    v-19.07C263.604,119.412,288.525,94.491,319.156,94.491z M263.604,184.321h116.594c64.29,0,116.594,52.304,116.594,116.594    s-52.304,116.594-116.594,116.594c-40.403,0-77.359-20.47-98.855-54.758l-2.236-3.566h-46.216l-2.236,3.566    c-21.497,34.287-58.451,54.758-98.855,54.758c-64.29,0-116.594-52.304-116.594-116.594s52.304-116.594,116.594-116.594h116.594    H263.604z"></path>
	</g>
</g>
<g>
	<g>
		<rect x="206.321" y="199.528" width="173.877" height="15.208"></rect>
	</g>
</g>
<g>
	<g>
		<rect x="131.802" y="199.528" width="54.242" height="15.208"></rect>
	</g>
</g>
<g>
</g>
<g>
</g>
<g>
</g>
<g>
</g>
<g>
</g>
<g>
</g>
<g>
</g>
<g>
</g>
<g>
</g>
<g>
</g>
<g>
</g>
<g>
</g>
<g>
</g>
<g>
</g>
<g>
</g>
</svg>