<svg xmlns="http://www.w3.org/2000/svg" fill="#be8553" xmlns:xlink="http://www.w3.org/1999/xlink" id="Layer_1" x="0px" y="0px" viewBox="0 0 512 512" style="enable-background:new 0 0 512 512;" xml:space="preserve">
	<g>
		<g>
			<path d="M511.273,166.859c-1.882-4.218-6.831-6.11-11.041-4.228c-57.263,25.546-148.565,40.797-244.231,40.797   c-95.667,0-186.969-15.251-244.233-40.797c-4.215-1.882-9.159,0.011-11.041,4.228c-1.882,4.217,0.013,9.159,4.229,11.041   c10.436,4.655,21.832,8.958,34.028,12.904l-19.652,127.64c-0.478,3.107,0.827,6.219,3.378,8.056   c2.549,1.835,5.913,2.089,8.711,0.65l61.199-31.491l46.378,47.945c1.601,1.654,3.78,2.548,6.01,2.548   c0.847,0,1.701-0.128,2.534-0.393c3.026-0.963,5.246-3.556,5.729-6.695l18.89-122.708c5.282,0.489,10.613,0.93,15.986,1.325   v124.055c0,3.176,1.798,6.076,4.643,7.488c1.178,0.584,2.45,0.872,3.716,0.872c1.792,0,3.574-0.576,5.055-1.701l53.134-40.33   l55.695,40.436c2.543,1.847,5.908,2.11,8.709,0.683c2.8-1.428,4.563-4.305,4.563-7.448V217.695   c5.374-0.395,10.705-0.834,15.988-1.322l18.888,122.69c0.484,3.138,2.703,5.732,5.729,6.695c0.833,0.265,1.687,0.393,2.534,0.393   c2.23,0,4.41-0.894,6.01-2.548l46.378-47.945l61.199,31.491c1.206,0.621,2.518,0.926,3.824,0.926c0.008,0,0.014,0,0.022,0h0.001   c4.618,0,8.36-3.743,8.36-8.36c0-0.651-0.074-1.284-0.214-1.893l-19.546-126.96c12.265-3.963,23.721-8.284,34.208-12.963   C511.259,176.019,513.153,171.076,511.273,166.859z M139.307,319.874l-38.985-40.301c-1.614-1.67-3.798-2.548-6.011-2.548   c-1.3,0-2.611,0.302-3.823,0.926l-52.134,26.827L55.13,195.8c29.945,8.42,63.62,14.779,100.36,18.953L139.307,319.874z    M306.942,325.337l-47.446-34.448c-1.466-1.065-3.189-1.595-4.911-1.595c-1.781,0-3.561,0.568-5.054,1.701l-44.663,33.901V218.881   c33.747,1.865,68.327,1.865,102.074,0V325.337z M473.454,304.777l-52.134-26.827c-3.277-1.685-7.271-1.029-9.834,1.622   l-38.985,40.301l-16.184-105.12c36.74-4.172,70.415-10.533,100.36-18.953L473.454,304.777z">
			</path>
		</g>
	</g>
	<g>
	</g>
	<g>
	</g>
	<g>
	</g>
	<g>
	</g>
	<g>
	</g>
	<g>
	</g>
	<g>
	</g>
	<g>
	</g>
	<g>
	</g>
	<g>
	</g>
	<g>
	</g>
	<g>
	</g>
	<g>
	</g>
	<g>
	</g>
	<g>
	</g>
</svg>
