<svg xmlns="http://www.w3.org/2000/svg" fill="#be8553" xmlns:xlink="http://www.w3.org/1999/xlink" id="Layer_1" x="0px" y="0px" viewBox="0 0 512 512" style="enable-background:new 0 0 512 512;" xml:space="preserve">
	<g>
		<g>
			<path d="M512,155.234c0-67.575-54.977-122.553-122.553-122.553c-12.834,0-25.43,1.972-37.52,5.86C326.974,14.678,293.17,0,256,0   s-70.974,14.678-95.927,38.541c-12.09-3.888-24.686-5.86-37.52-5.86C54.977,32.681,0,87.659,0,155.234   c0,68.714,39.169,130.934,99.429,161.072c-10.698,7.374-17.727,19.704-17.727,33.651c0,4.513,3.658,8.17,8.17,8.17h24.511v129.362   c0,13.515,10.995,24.511,24.511,24.511c13.516,0,24.511-10.996,24.511-24.511v-32.681c0-4.506,3.665-8.17,8.17-8.17   s8.17,3.665,8.17,8.17v49.021c0,4.513,3.658,8.17,8.17,8.17s8.17-3.657,8.17-8.17v-49.021c0-13.515-10.995-24.511-24.511-24.511   c-13.516,0-24.511,10.996-24.511,24.511v32.681c0,4.506-3.665,8.17-8.17,8.17s-8.17-3.665-8.17-8.17V349.957   c0-4.513-3.658-8.17-8.17-8.17H99.442c3.372-9.51,12.459-16.34,23.111-16.34c13.516,0,24.511,10.996,24.511,24.511   c0,4.513,3.658,8.17,8.17,8.17s8.17-3.657,8.17-8.17c0-13.957-7.039-26.296-17.751-33.669c5.889-2.953,11.633-6.225,17.186-9.823   c3.787-2.454,4.866-7.512,2.413-11.3s-7.513-4.865-11.3-2.413c-9.9,6.417-20.451,11.734-31.4,15.83   C58.899,284.804,16.34,223.548,16.34,155.234c0-58.566,47.646-106.213,106.213-106.213c8.543,0,16.957,1.028,25.146,3.019   c-19.128,23.803-30.593,54.013-30.593,86.854c0,79.081,45.653,150.59,115.618,184.329c-10.612,7.386-17.576,19.664-17.576,33.544   c0,4.513,3.658,8.17,8.17,8.17h24.511V503.83c0,4.513,3.658,8.17,8.17,8.17c4.512,0,8.17-3.657,8.17-8.17V356.766   c0-4.513-3.658-8.17-8.17-8.17h-23.111c3.372-9.51,12.459-16.34,23.111-16.34c13.516,0,24.511,10.996,24.511,24.511   c0,4.513,3.658,8.17,8.17,8.17s8.17-3.657,8.17-8.17c0-13.881-6.964-26.159-17.576-33.544   c69.965-33.739,115.618-105.248,115.618-184.329c0-32.841-11.464-63.051-30.593-86.854c8.189-1.99,16.603-3.019,25.146-3.019   c58.566,0,106.213,47.646,106.213,106.213c0,68.314-42.558,129.57-106.212,153.349c-10.949-4.096-21.499-9.413-31.4-15.83   c-3.787-2.452-8.845-1.375-11.3,2.413c-2.453,3.788-1.374,8.846,2.413,11.3c5.551,3.598,11.297,6.87,17.186,9.823   c-10.712,7.372-17.751,19.711-17.751,33.668c0,4.513,3.658,8.17,8.17,8.17h24.511v129.362c0,4.506-3.665,8.17-8.17,8.17   c-4.506,0-8.17-3.665-8.17-8.17v-32.681c0-13.515-10.995-24.511-24.511-24.511s-24.511,10.996-24.511,24.511v49.021   c0,4.513,3.658,8.17,8.17,8.17c4.512,0,8.17-3.657,8.17-8.17v-49.021c0-4.506,3.665-8.17,8.17-8.17c4.506,0,8.17,3.665,8.17,8.17   v32.681c0,13.515,10.995,24.511,24.511,24.511s24.511-10.996,24.511-24.511V349.957c0-4.513-3.658-8.17-8.17-8.17h-23.111   c3.372-9.51,12.459-16.34,23.111-16.34c13.516,0,24.511,10.996,24.511,24.511c0,4.513,3.658,8.17,8.17,8.17   c4.512,0,8.17-3.657,8.17-8.17c0-13.947-7.03-26.278-17.727-33.651C472.831,286.168,512,223.948,512,155.234z M378.553,138.894   c0,78.706-49.126,149.265-122.553,176.502c-73.427-27.236-122.553-97.795-122.553-176.502C133.447,71.317,188.424,16.34,256,16.34   C323.576,16.34,378.553,71.317,378.553,138.894z">
			</path>
		</g>
	</g>
	<g>
	</g>
	<g>
	</g>
	<g>
	</g>
	<g>
	</g>
	<g>
	</g>
	<g>
	</g>
	<g>
	</g>
	<g>
	</g>
	<g>
	</g>
	<g>
	</g>
	<g>
	</g>
	<g>
	</g>
	<g>
	</g>
	<g>
	</g>
	<g>
	</g>
</svg>
