<svg width="30" height="22" viewBox="0 0 30 22" fill="none" xmlns="http://www.w3.org/2000/svg">
<path d="M29.6007 9.92834L20.0552 0.382793C19.798 0.134393 19.4535 -0.00305542 19.096 5.15493e-05C18.7385 0.00315851 18.3964 0.146572 18.1436 0.399404C17.8908 0.652236 17.7474 0.994256 17.7443 1.3518C17.7411 1.70934 17.8786 2.05381 18.127 2.31099L25.3448 9.52879H1.36365C1.00199 9.52879 0.655138 9.67246 0.399404 9.92819C0.14367 10.1839 0 10.5308 0 10.8924C0 11.2541 0.14367 11.601 0.399404 11.8567C0.655138 12.1124 1.00199 12.2561 1.36365 12.2561H25.3448L18.127 19.4739C17.9968 19.5997 17.8929 19.7501 17.8214 19.9165C17.7499 20.0829 17.7123 20.2618 17.7107 20.4429C17.7092 20.624 17.7437 20.8035 17.8122 20.9711C17.8808 21.1387 17.9821 21.291 18.1101 21.419C18.2381 21.547 18.3904 21.6483 18.558 21.7168C18.7256 21.7854 18.9051 21.8199 19.0862 21.8183C19.2673 21.8168 19.4462 21.7791 19.6126 21.7077C19.7789 21.6362 19.9294 21.5323 20.0552 21.4021L29.6007 11.8565C29.8564 11.6008 30 11.254 30 10.8924C30 10.5308 29.8564 10.1841 29.6007 9.92834V9.92834Z" fill="#BE8553"/>
</svg>
