<svg width="47" height="50" viewBox="0 0 47 50" fill="none" xmlns="http://www.w3.org/2000/svg">
<path d="M20.5142 10.2539C20.5142 7.51494 19.4476 4.93994 17.5109 3.00332C15.5742 1.0666 12.9992 0 10.2603 0C7.52135 0 4.94635 1.0666 3.00963 3.00332C2.25055 3.7623 1.61901 4.62861 1.13239 5.57803L2.436 6.24609C2.74186 5.64932 3.11539 5.09111 3.54938 4.57881L9.22448 10.2539L6.87985 12.5985C5.29342 11.1599 3.45416 10.1146 1.49694 9.54072C1.55416 8.85449 1.69186 8.16738 1.91471 7.49229L0.523695 7.0332C-0.698473 10.7366 0.254066 14.749 3.00963 17.5046C5.00866 19.5036 7.63444 20.5031 10.2603 20.5031C12.8861 20.5031 15.5119 19.5036 17.5109 17.5046C19.4476 15.5679 20.5142 12.9929 20.5142 10.2539ZM13.6418 5.83672C12.4811 4.54307 11.6123 3.06895 11.0865 1.50391C12.8802 1.67012 14.559 2.37705 15.9345 3.54404L13.6418 5.83672ZM13.6407 7.90937C15.2258 9.34687 17.0634 10.3915 19.0187 10.9657C18.8724 12.8023 18.1619 14.5236 16.9703 15.9281L11.2962 10.254L13.6407 7.90937ZM19.0103 9.42773C17.4454 8.90195 15.9713 8.03311 14.6776 6.87246L16.9703 4.57978C18.1371 5.95518 18.8441 7.63398 19.0103 9.42773ZM4.5861 3.54404C5.99059 2.35244 7.71188 1.64189 9.5485 1.49551C10.1226 3.45088 11.1673 5.28838 12.6048 6.87354L10.2602 9.21816L4.5861 3.54404ZM15.9344 16.964C14.5298 18.1556 12.8086 18.8661 10.972 19.0124C10.3979 17.0571 9.35328 15.2195 7.91569 13.6344L10.2603 11.2897L15.9344 16.964ZM6.87887 14.6712C8.03952 15.9648 8.90836 17.439 9.43414 19.0039C7.64039 18.8377 5.96159 18.1308 4.58619 16.9639L6.87887 14.6712ZM1.50358 11.0778C3.07106 11.6034 4.54762 12.473 5.84303 13.6354L3.54957 15.9288C2.36793 14.536 1.66745 12.8434 1.50358 11.0778Z" fill="#BE8553"/>
<path d="M20.6953 3.66211H39.2856V5.12695H20.6953V3.66211Z" fill="#BE8553"/>
<path d="M40.751 3.66211V5.12695H45.1454V29.6094H46.6103V3.66211H40.751Z" fill="#BE8553"/>
<path d="M4.86719 20.4731H3.40234V36.9335H9.13701V35.4687H4.86719V20.4731Z" fill="#BE8553"/>
<path d="M45.1448 35.4687H40.875V36.9335H46.6097V31.0742H45.1448V35.4687Z" fill="#BE8553"/>
<path d="M13.5312 21.8252H14.9961V31.1914H13.5312V21.8252Z" fill="#BE8553"/>
<path d="M36.4811 31.1912V14.1011H21.54V15.5659H35.0162V31.1912H36.4811Z" fill="#BE8553"/>
<path d="M37.2129 32.6562H25.7383V34.1211H37.2129C37.6167 34.1211 37.9453 34.4496 37.9453 34.8535V37.7832C37.9453 38.187 37.6168 38.5156 37.2129 38.5156H12.7988C12.3949 38.5156 12.0664 38.1871 12.0664 37.7832V34.8535C12.0664 34.4497 12.3949 34.1211 12.7988 34.1211H24.2734V32.6562H12.7988C11.5873 32.6562 10.6016 33.6419 10.6016 34.8535V37.7832C10.6016 38.8833 11.4144 39.7971 12.4709 39.9559L16.4609 43.9459V50.0001H17.9258V45.4108L20.308 47.7931L19.3513 48.7498L20.387 49.7855L21.3438 48.8288L22.3005 49.7855L23.3362 48.7498L22.3795 47.7931L25.0058 45.1668L27.632 47.7931L26.6753 48.7498L27.711 49.7855L28.6678 48.8288L29.6245 49.7855L30.6603 48.7498L29.7035 47.7931L32.0857 45.4108V50.0001H33.5506V43.946L37.5406 39.956C38.5972 39.7972 39.4099 38.8834 39.4099 37.7833V34.8536C39.4101 33.642 38.4244 32.6562 37.2129 32.6562ZM35.4446 39.9805L33.5508 41.8743L31.6569 39.9805H35.4446ZM28.1205 39.9805L25.0059 43.0951L21.8912 39.9805H28.1205ZM18.3548 39.9805L16.4609 41.8743L14.5671 39.9805H18.3548ZM21.3438 46.7572L17.9259 43.3393L17.4968 42.9102L20.123 40.2839L23.9701 44.131L21.3438 46.7572ZM28.668 46.7572L26.0417 44.131L29.8888 40.2839L32.515 42.9102L32.0859 43.3393L28.668 46.7572Z" fill="#BE8553"/>
<path d="M42.2158 9.52148H43.6807V13.916H42.2158V9.52148Z" fill="#BE8553"/>
<path d="M42.2158 6.5918H43.6807V8.05664H42.2158V6.5918Z" fill="#BE8553"/>
<path d="M6.33203 32.5391H7.79688V34.0039H6.33203V32.5391Z" fill="#BE8553"/>
<path d="M6.33203 29.6094H7.79688V31.0742H6.33203V29.6094Z" fill="#BE8553"/>
<path d="M29.1562 35.4688H33.5508V36.9336H29.1562V35.4688Z" fill="#BE8553"/>
<path d="M35.0156 35.4688H36.4805V36.9336H35.0156V35.4688Z" fill="#BE8553"/>
<path d="M22.8086 23.3787H24.2734V24.8435H22.8086V23.3787Z" fill="#BE8553"/>
<path d="M25.7383 23.3787H27.2031V24.8435H25.7383V23.3787Z" fill="#BE8553"/>
</svg>
