<svg width="65" height="50" viewBox="0 0 65 50" fill="none" xmlns="http://www.w3.org/2000/svg">
<path d="M63.983 16.5562C63.8716 16.2393 63.5995 16.0062 63.2692 15.9447L20.8836 8.07071C19.2881 7.77467 17.7488 8.83126 17.4523 10.4268L15.9873 18.3126C15.6909 19.9081 16.7479 21.4473 18.3434 21.7439L18.4069 21.7556L18.2121 22.8048C17.9157 24.4004 18.9726 25.9396 20.5683 26.2361L22.0569 26.5127V30.3966C21.4339 31.0945 21.0543 32.014 21.0543 33.0209C21.0543 33.7795 21.27 34.4885 21.6425 35.0906H5.8863V35.0261C5.8863 33.4032 4.56593 32.0829 2.94315 32.0829H0.938025C0.419985 32.0829 0 32.5029 0 33.0209V49.0622C0 49.5802 0.419985 50.0002 0.938025 50.0002H2.94315C4.56606 50.0002 5.8863 48.6798 5.8863 47.057V42.9821H20.9895C23.718 42.9821 25.9378 40.7623 25.9378 38.0337V36.8531C27.662 36.431 28.9455 34.8734 28.9455 33.0209C28.9455 32.014 28.5659 31.0945 27.9429 30.3966V27.6063L56.0536 32.8285C56.2346 32.8621 56.4147 32.8782 56.5924 32.8782C57.9822 32.8782 59.222 31.8869 59.4848 30.4723L61.3744 20.3011L63.8079 17.4799C64.0275 17.2253 64.0941 16.8731 63.983 16.5562ZM4.01025 47.0568C4.01025 47.6453 3.53148 48.1239 2.94315 48.1239H1.87605V33.9587H2.94315C3.5316 33.9587 4.01025 34.4375 4.01025 35.0258V47.0568ZM24.0618 38.0336C24.0618 39.7277 22.6836 41.106 20.9896 41.106H5.8863V36.9665H24.0618V38.0336ZM24.9999 35.0903C23.8586 35.0903 22.9302 34.162 22.9302 33.0207C22.9302 31.8794 23.8586 30.951 24.9999 30.951C26.1411 30.951 27.0695 31.8794 27.0695 33.0207C27.0695 34.162 26.1411 35.0903 24.9999 35.0903ZM23.9328 29.2228V26.861L26.067 27.2575V29.2227C25.7273 29.1271 25.3697 29.0749 24.9999 29.0749C24.63 29.0749 24.2725 29.1271 23.9328 29.2228ZM54.4185 25.493C53.9396 26.0482 53.1942 26.3098 52.4733 26.1759L26.5719 21.3642C26.0627 21.2697 25.5729 21.6058 25.4783 22.1151C25.3837 22.6244 25.7199 23.114 26.2292 23.2087L52.1304 28.0204C52.3685 28.0647 52.6077 28.0862 52.8457 28.0862C53.9817 28.0862 55.084 27.5935 55.839 26.7183L58.9425 23.1204L57.6404 30.1294C57.533 30.7079 56.9748 31.0912 56.3963 30.9837L20.9107 24.3915C20.6304 24.3395 20.3873 24.1814 20.226 23.9464C20.0646 23.7113 20.0045 23.4276 20.0565 23.1474L20.2513 22.0983L22.2864 22.4764C22.7963 22.5711 23.2853 22.2349 23.38 21.7255C23.4745 21.2161 23.1383 20.7266 22.629 20.6319L18.6861 19.8993C18.4058 19.8473 18.1627 19.6892 18.0013 19.4542C17.84 19.2192 17.7798 18.9355 17.8319 18.6553L19.2968 10.7695C19.3488 10.4893 19.5069 10.2461 19.7419 10.0847C19.9768 9.92325 20.2605 9.86309 20.5409 9.91525L61.3208 17.491L54.4185 25.493Z" fill="#BE8553"/>
<path d="M19.9867 4.01025C16.1526 4.01025 13.0332 7.12963 13.0332 10.9638C13.0332 11.4818 13.4532 11.9018 13.9712 11.9018C14.4893 11.9018 14.9093 11.4818 14.9093 10.9638C14.9093 8.16408 17.187 5.8863 19.9867 5.8863C20.5048 5.8863 20.9247 5.46632 20.9247 4.94828C20.9247 4.43024 20.5048 4.01025 19.9867 4.01025Z" fill="#BE8553"/>
<path d="M9.96146 11.9019C10.4795 11.9019 10.8995 11.4819 10.8995 10.9639C10.8995 5.95283 14.9763 1.87605 19.9873 1.87605C20.5054 1.87605 20.9254 1.45607 20.9254 0.938025C20.9254 0.419985 20.5054 0 19.9873 0C13.9418 0 9.02344 4.91838 9.02344 10.9639C9.02344 11.4819 9.44342 11.9019 9.96146 11.9019Z" fill="#BE8553"/>
</svg>
