<svg width="50" height="50" viewBox="0 0 50 50" fill="none" xmlns="http://www.w3.org/2000/svg">
<path d="M20.7641 10.6239C21.0769 11.5801 21.7331 12.3817 22.5865 12.8831V13.3191L19.3572 14.5836C19.0595 14.6913 16.5322 15.6998 16.5322 18.9129V21.7253C16.5322 22.1612 16.8855 22.5153 17.3217 22.5153H19.3274C19.7636 22.5153 20.1169 22.1619 20.1169 21.7259C20.1169 21.29 19.7636 20.9364 19.3274 20.9364H18.111V18.9128C18.111 16.7285 19.8188 16.095 19.8851 16.0714C19.8973 16.0673 19.9095 16.0629 19.9214 16.0581L22.8787 14.8999L24.4495 16.4297C24.5971 16.5734 24.7947 16.6537 25.0003 16.6537C25.0045 16.6537 25.0086 16.6536 25.0128 16.6536C25.2229 16.6503 25.423 16.5633 25.5688 16.412L27.052 14.8725L30.0026 16.0557C30.0165 16.0612 30.0308 16.0664 30.0448 16.0713C30.0626 16.0773 31.819 16.6933 31.819 18.9126V20.9362H27.3911H22.5387H21.8358C21.3997 20.9362 21.0464 21.2897 21.0464 21.7257C21.0464 22.1616 21.3997 22.5152 21.8358 22.5152H22.5387H27.3911H32.6084C33.0443 22.5152 33.3979 22.1563 33.3979 21.7202V18.9128C33.3979 15.7121 30.89 14.6988 30.5762 14.5848L27.4309 13.3235V12.883C28.2847 12.3814 28.9411 11.5793 29.2537 10.6225C30.3966 10.5307 31.2989 9.57335 31.2989 8.40743C31.2989 7.71407 30.9799 7.09424 30.4813 6.68604V5.29346C30.4813 2.37461 28.1066 0 25.1879 0H24.8125C21.8938 0 19.5191 2.37461 19.5191 5.29346V6.67989C19.0159 7.08799 18.6932 7.71045 18.6932 8.40753C18.6932 9.58214 19.6091 10.5446 20.7641 10.6239ZM29.4557 7.94376C29.4843 7.95274 29.5137 7.95967 29.5436 7.96534C29.6526 8.08106 29.7201 8.23633 29.7201 8.40753C29.7201 8.62081 29.6157 8.80958 29.4557 8.92715V7.94376ZM25.8519 13.8426L24.9823 14.7453L24.1653 13.9496V13.415C24.3247 13.4339 24.4863 13.4447 24.6507 13.4447H25.3665C25.531 13.4447 25.6926 13.4339 25.8519 13.415V13.8426ZM27.8768 9.35557C27.8768 10.7398 26.7507 11.8656 25.3667 11.8656H24.6509C23.2667 11.8656 22.1405 10.7396 22.1405 9.35557V7.28516C23.1629 7.17413 24.9688 6.81475 26.363 5.65293C26.6757 6.1876 27.1582 6.76485 27.8769 7.10293V9.35557H27.8768ZM21.098 5.29346C21.098 3.24522 22.7644 1.57891 24.8125 1.57891H25.1879C27.236 1.57891 28.9024 3.24522 28.9024 5.29346V5.79209C28.889 5.78789 28.8751 5.78497 28.8614 5.78135C28.8547 5.77969 28.8482 5.77735 28.8414 5.77579C27.7503 5.52754 27.3931 4.06992 27.3904 4.05899C27.322 3.75645 27.0826 3.52207 26.7787 3.45987C26.4747 3.39746 26.1626 3.51924 25.9809 3.77061C24.5607 5.73389 21.3932 5.75606 21.3536 5.75606C21.3527 5.75606 21.352 5.75606 21.3511 5.75606C21.3239 5.75606 21.297 5.75743 21.2705 5.76016C21.2635 5.76094 21.2565 5.7625 21.2496 5.76329C21.2304 5.76573 21.211 5.76827 21.1923 5.77198C21.1824 5.77413 21.1729 5.77715 21.163 5.77959C21.1477 5.7834 21.1319 5.78672 21.1169 5.79141C21.1105 5.79346 21.1045 5.7962 21.0981 5.79825V5.29346H21.098ZM20.4316 7.98399C20.4764 7.97706 20.5197 7.96651 20.5616 7.95235V8.94542C20.3873 8.82969 20.2721 8.63194 20.2721 8.40753C20.2721 8.24542 20.3324 8.09747 20.4316 7.98399Z" fill="#BE8553"/>
<path d="M32.2635 2.73902C37.3667 4.41158 41.7807 7.83268 44.6922 12.3721C44.8431 12.6072 45.0976 12.7355 45.3574 12.7355C45.5034 12.7355 45.651 12.6951 45.7829 12.6104C46.1499 12.3751 46.2566 11.8867 46.0213 11.5197C42.9141 6.67516 38.2028 3.02398 32.7553 1.23853C32.3401 1.1025 31.895 1.32867 31.7592 1.74283C31.6234 2.15738 31.8492 2.60318 32.2635 2.73902Z" fill="#BE8553"/>
<path d="M4.14363 12.6108C4.27556 12.6954 4.42312 12.7359 4.56912 12.7359C4.82898 12.7359 5.08367 12.6075 5.23435 12.3725C8.17957 7.78049 12.651 4.34075 17.8245 2.68694C18.2398 2.55422 18.4689 2.10988 18.336 1.69455C18.2032 1.27922 17.7587 1.05012 17.3437 1.18303C11.821 2.94826 7.04832 6.61946 3.90515 11.5199C3.67 11.887 3.77664 12.3754 4.14363 12.6108Z" fill="#BE8553"/>
<path d="M15.1926 46.2899C11.1098 44.4132 7.66631 41.417 5.23437 37.6254C4.99892 37.2582 4.51035 37.1517 4.14365 37.387C3.77665 37.6224 3.66992 38.1107 3.90527 38.4777C6.50048 42.524 10.1756 45.7214 14.5331 47.7246C14.64 47.7737 14.7521 47.7971 14.8624 47.7971C15.1612 47.7971 15.4473 47.6265 15.5802 47.3372C15.7622 46.9409 15.5888 46.4722 15.1926 46.2899Z" fill="#BE8553"/>
<path d="M45.7841 37.3869C45.4174 37.1518 44.9288 37.2581 44.6934 37.6253C42.2964 41.3627 38.9087 44.3327 34.8968 46.2143C34.5021 46.3994 34.3321 46.8695 34.5173 47.2643C34.6515 47.5507 34.9359 47.7187 35.2325 47.7187C35.3447 47.7187 35.4588 47.6945 35.5673 47.6438C39.8492 45.6357 43.4646 42.4662 46.0227 38.4777C46.2578 38.1107 46.1512 37.6224 45.7841 37.3869Z" fill="#BE8553"/>
<path d="M16.8658 35.4617V32.6543C16.8658 29.4537 14.3584 28.4406 14.0442 28.3263L10.8988 27.0649V26.6244C11.7526 26.1228 12.4091 25.3206 12.7217 24.3638C13.8645 24.272 14.7669 23.3147 14.7669 22.1487C14.7669 21.4555 14.4479 20.8356 13.9491 20.4273V19.0348C13.9491 16.1159 11.5745 13.7412 8.65577 13.7412H8.28038C5.36153 13.7412 2.98701 16.1159 2.98701 19.0348V20.4212C2.48379 20.8294 2.16104 21.4518 2.16104 22.1487C2.16104 23.3233 3.07696 24.2858 4.23174 24.3651C4.54463 25.3213 5.20078 26.1231 6.0543 26.6244V27.0603L2.825 28.325C2.52656 28.4327 0 29.4414 0 32.6543V35.4665C0 35.9026 0.35332 36.2567 0.789454 36.2567H2.79522C3.23135 36.2567 3.58467 35.9033 3.58467 35.4672C3.58467 35.0311 3.23135 34.6777 2.79522 34.6777H1.57891V32.6542C1.57891 30.4697 3.28662 29.8364 3.35283 29.8129C3.36504 29.8088 3.37725 29.8044 3.38926 29.7996L6.34649 28.6415L7.91739 30.1713C8.06485 30.315 8.2625 30.3952 8.46807 30.3952C8.47227 30.3952 8.47637 30.3952 8.48057 30.3951C8.69063 30.3919 8.89073 30.3048 9.03653 30.1535L10.5197 28.614L13.4703 29.7972C13.4843 29.8028 13.492 29.8058 13.5064 29.8106C13.579 29.8364 15.2868 30.4698 15.2868 32.6542V34.6777H10.859H6.00664H5.30381C4.86768 34.6777 4.51436 35.0311 4.51436 35.4672C4.51436 35.9033 4.86768 36.2567 5.30381 36.2567H6.00664H10.8591H16.0764C16.5124 36.2567 16.8658 35.8977 16.8658 35.4617ZM12.9236 21.685C12.9522 21.6939 12.9816 21.7009 13.0114 21.7065C13.1206 21.8223 13.1881 21.9775 13.1881 22.1487C13.1881 22.362 13.0837 22.5508 12.9236 22.6684V21.685ZM4.02959 22.6866C3.85528 22.5709 3.74004 22.3731 3.74004 22.1487C3.74004 21.9866 3.80059 21.8387 3.89971 21.7252C3.94434 21.7182 3.9878 21.7077 4.02959 21.6936V22.6866ZM4.82149 19.4974C4.82061 19.4974 4.81983 19.4974 4.81895 19.4974C4.7918 19.4974 4.76485 19.4987 4.73838 19.5015C4.73135 19.5022 4.72442 19.5038 4.71748 19.5046C4.69825 19.507 4.67901 19.5096 4.66016 19.5133C4.6503 19.5154 4.64073 19.5185 4.63086 19.5209C4.61553 19.5247 4.59981 19.528 4.58477 19.5327C4.57832 19.5347 4.57237 19.5375 4.56602 19.5396V19.0349C4.56602 16.9864 6.23233 15.3201 8.28047 15.3201H8.65586C10.704 15.3201 12.3703 16.9865 12.3703 19.0348V19.5333C12.3569 19.5291 12.3431 19.5262 12.3294 19.5226C12.3227 19.5209 12.3161 19.5185 12.3094 19.517C11.2183 19.2688 10.861 17.8113 10.8584 17.8003C10.7899 17.4978 10.5506 17.2634 10.2467 17.2013C9.94268 17.139 9.63047 17.2605 9.44893 17.512C8.02852 19.4751 4.86104 19.4974 4.82149 19.4974ZM9.31983 27.5838L8.4503 28.4865L7.63331 27.6908V27.1562C7.79268 27.1751 7.9543 27.1859 8.11866 27.1859H8.83448C8.99893 27.1859 9.16055 27.1751 9.31983 27.1562V27.5838ZM8.83458 25.6069H8.11876C6.73457 25.6069 5.6084 24.4809 5.6084 23.0968V21.0264H5.6085C6.63086 20.9153 8.43672 20.5561 9.83096 19.3941C10.1437 19.929 10.6262 20.506 11.3448 20.8441V23.0968C11.3447 24.481 10.2187 25.6069 8.83458 25.6069Z" fill="#BE8553"/>
<path d="M47.1778 28.3263L44.0325 27.065V26.6244C44.8863 26.1228 45.5428 25.3206 45.8554 24.3638C46.9982 24.272 47.9006 23.3147 47.9006 22.1487C47.9006 21.4555 47.5815 20.8356 47.0828 20.4273V19.0348C47.0828 16.1159 44.7082 13.7412 41.7895 13.7412H41.414C38.4952 13.7412 36.1206 16.1159 36.1206 19.0348V20.4212C35.6174 20.8294 35.2946 21.4518 35.2946 22.1487C35.2946 23.3233 36.2105 24.2858 37.3654 24.3651C37.6783 25.3213 38.3345 26.1231 39.188 26.6244V27.0603L35.9588 28.325C35.6604 28.4327 33.1338 29.4414 33.1338 32.6543V35.4665C33.1338 35.9026 33.4871 36.2567 33.9232 36.2567H35.929C36.3651 36.2567 36.7185 35.9033 36.7185 35.4672C36.7185 35.0311 36.3651 34.6777 35.929 34.6777H34.7126V32.6542C34.7126 30.4697 36.4203 29.8364 36.4865 29.8129C36.4987 29.8088 36.5108 29.8044 36.5229 29.7996L39.4802 28.6415L41.0511 30.1713C41.1985 30.315 41.3962 30.3952 41.6019 30.3952C41.6061 30.3952 41.6102 30.3952 41.6144 30.3951C41.8244 30.3919 42.0246 30.3048 42.1703 30.1535L43.6535 28.614L46.6041 29.7972C46.6181 29.8028 46.6258 29.8058 46.6401 29.8106C46.7128 29.8364 48.4206 30.4698 48.4206 32.6542V34.6777H43.9928H39.1403H38.4375C38.0014 34.6777 37.648 35.0311 37.648 35.4672C37.648 35.9033 38.0014 36.2567 38.4375 36.2567H39.1403H43.9928H49.2101C49.6462 36.2567 49.9995 35.8978 49.9995 35.4617V32.6543C49.9994 29.4537 47.492 28.4406 47.1778 28.3263ZM46.0573 21.6851C46.0858 21.694 46.1153 21.701 46.1451 21.7066C46.2543 21.8224 46.3218 21.9776 46.3218 22.1488C46.3218 22.3621 46.2174 22.5509 46.0573 22.6685V21.6851ZM37.1633 22.6867C36.989 22.571 36.8737 22.3732 36.8737 22.1488C36.8737 21.9867 36.9343 21.8388 37.0334 21.7253C37.078 21.7183 37.1215 21.7078 37.1633 21.6937V22.6867ZM37.9552 19.4975C37.9543 19.4975 37.9535 19.4975 37.9526 19.4975C37.9255 19.4975 37.8985 19.4988 37.8721 19.5016C37.865 19.5023 37.8581 19.5039 37.8512 19.5047C37.8319 19.5071 37.8126 19.5097 37.7938 19.5134C37.784 19.5155 37.7744 19.5186 37.7646 19.521C37.7492 19.5248 37.7335 19.5281 37.7184 19.5328C37.712 19.5348 37.706 19.5376 37.6996 19.5397V19.035C37.6996 16.9865 39.3659 15.3202 41.4141 15.3202H41.7896C43.8377 15.3202 45.504 16.9866 45.504 19.0349V19.5334C45.4906 19.5292 45.4768 19.5263 45.4631 19.5227C45.4564 19.521 45.4498 19.5186 45.4431 19.5171C44.352 19.2689 43.9947 17.8114 43.9921 17.8004C43.9236 17.4979 43.6843 17.2635 43.3804 17.2014C43.0765 17.1391 42.7643 17.2606 42.5826 17.5121C41.1623 19.4752 37.9948 19.4975 37.9552 19.4975ZM42.4535 27.5839L41.584 28.4866L40.767 27.6909V27.1563C40.9264 27.1752 41.088 27.186 41.2523 27.186H41.9682C42.1324 27.186 42.2942 27.1752 42.4535 27.1563V27.5839ZM41.9682 25.6071H41.2523C39.8682 25.6071 38.742 24.4811 38.742 23.0969V21.0265H38.7421C39.7647 20.9151 41.5716 20.5551 42.9646 19.3942C43.2773 19.9291 43.7598 20.5061 44.4784 20.8442V23.0969C44.4784 24.4812 43.3523 25.6071 41.9682 25.6071Z" fill="#BE8553"/>
<path d="M30.5764 42.0695L27.4311 40.8082V40.3677C28.2849 39.866 28.9413 39.0639 29.2539 38.107C30.3968 38.0152 31.2991 37.0578 31.2991 35.8919C31.2991 35.1986 30.9801 34.5788 30.4815 34.1705V32.7779C30.4815 29.8591 28.1068 27.4844 25.1881 27.4844H24.8127C21.8939 27.4844 19.5193 29.859 19.5193 32.7779V34.1644C19.0161 34.5726 18.6934 35.1949 18.6934 35.8919C18.6934 37.0665 19.6093 38.029 20.7641 38.1083C21.077 39.0646 21.7331 39.8662 22.5866 40.3677V40.8035L19.3572 42.0682C19.0588 42.1759 16.5322 43.1847 16.5322 46.3975V49.2097C16.5322 49.6458 16.8855 49.9998 17.3217 49.9998H19.3274C19.7636 49.9998 20.1169 49.6465 20.1169 49.2104C20.1169 48.7742 19.7636 48.4209 19.3274 48.4209H18.111V46.3974C18.111 44.2129 19.8188 43.5796 19.8851 43.5561C19.8973 43.552 19.9095 43.5476 19.9215 43.5428L22.8787 42.3846L24.4496 43.9144C24.5971 44.058 24.7947 44.1383 25.0003 44.1383C25.0045 44.1383 25.0086 44.1383 25.0128 44.1382C25.2229 44.135 25.423 44.048 25.5688 43.8966L27.052 42.357L30.0025 43.5402C30.0165 43.5459 30.0242 43.5488 30.0386 43.5536C30.1112 43.5795 31.8191 44.2129 31.8191 46.3973V48.4208H27.3912H22.5388H21.8359C21.3998 48.4208 21.0465 48.7741 21.0465 49.2103C21.0465 49.6464 21.3998 49.9997 21.8359 49.9997H22.5388H27.3912H32.6085C33.0444 49.9997 33.398 49.6408 33.398 49.2048V46.3974C33.398 43.197 30.8905 42.1838 30.5764 42.0695ZM29.4559 35.4281C29.4845 35.4371 29.5139 35.444 29.5437 35.4497C29.6528 35.5654 29.7203 35.7207 29.7203 35.8919C29.7203 36.1053 29.6159 36.294 29.4559 36.4116V35.4281ZM20.5618 36.4299C20.3875 36.3142 20.2723 36.1163 20.2723 35.8919C20.2723 35.7298 20.3328 35.5819 20.4318 35.4685C20.4766 35.4614 20.52 35.451 20.5618 35.4368V36.4299ZM21.3536 33.2403C21.3527 33.2403 21.352 33.2403 21.3511 33.2403C21.3239 33.2403 21.297 33.2417 21.2705 33.2444C21.2622 33.2453 21.2542 33.247 21.2459 33.2482C21.228 33.2505 21.2099 33.2527 21.1923 33.2564C21.1799 33.2588 21.168 33.2626 21.1557 33.2657C21.1427 33.269 21.1295 33.2719 21.1168 33.2757C21.1104 33.2775 21.1044 33.2804 21.098 33.2824V32.7777C21.098 30.7296 22.7645 29.0633 24.8125 29.0633H25.1879C27.236 29.0633 28.9024 30.7296 28.9024 32.7779V33.2765C28.8897 33.2725 28.8764 33.2697 28.8633 33.2662C28.856 33.2642 28.8488 33.2618 28.8414 33.26C27.7503 33.0118 27.3931 31.5544 27.3904 31.5433C27.322 31.2407 27.0826 31.0064 26.7787 30.9442C26.4747 30.8819 26.1626 31.0035 25.981 31.2549C24.5607 33.2182 21.3933 33.2403 21.3536 33.2403ZM25.8521 41.327L24.9825 42.2298L24.1655 41.4341V40.8994C24.3249 40.9184 24.4865 40.9292 24.6509 40.9292H25.3667C25.5312 40.9292 25.6928 40.9183 25.8521 40.8994V41.327ZM25.3668 39.3502H24.651C23.2668 39.3502 22.1406 38.2241 22.1406 36.84V34.7697H22.1407C23.1631 34.6586 24.969 34.2993 26.3632 33.1374C26.6759 33.6721 27.1584 34.2493 27.8771 34.5874V36.84C27.877 38.224 26.7509 39.3502 25.3668 39.3502Z" fill="#BE8553"/>
</svg>
