<svg width="50" height="50" viewBox="0 0 50 50" fill="none" xmlns="http://www.w3.org/2000/svg">
<path d="M47.7742 10.5968L48.2927 6.45161H48.3871C49.2766 6.45161 50 5.72823 50 4.83871V3.22581C50 2.33629 49.2766 1.6129 48.3871 1.6129H45.9677V0H44.3548V1.6129H41.9355C41.046 1.6129 40.3226 2.33629 40.3226 3.22581V4.83871C40.3226 5.72823 41.046 6.45161 41.9355 6.45161H42.0298L42.5476 10.5968C42.6766 11.6323 43.4048 12.4597 44.354 12.7669V14.5161H42.7411C41.4073 14.5161 40.3218 15.6016 40.3218 16.9355C40.3218 17.9855 40.9984 18.8726 41.9347 19.2065V19.3548C41.0395 19.3548 39.4468 18.4355 38.1726 17.4774C38.9661 17.0798 39.5161 16.2677 39.5161 15.3226C39.5161 12.3831 37.9331 10.4839 35.4839 10.4839C34.0056 10.4839 33.0347 11.2121 32.1774 11.8548C31.4274 12.4169 30.7798 12.9032 29.8387 12.9032C27.6153 12.9032 25.8065 11.0944 25.8065 8.87097C25.8065 7.50887 27.1065 6.45161 28.2258 6.45161C29.5597 6.45161 30.6452 7.5371 30.6452 8.87097C30.6452 9.31613 30.2839 9.67742 29.8387 9.67742C29.3935 9.67742 29.0323 9.31613 29.0323 8.87097V8.06452H27.4194V8.87097C27.4194 10.2048 28.5048 11.2903 29.8387 11.2903C31.1726 11.2903 32.2581 10.2048 32.2581 8.87097C32.2581 6.64758 30.4492 4.83871 28.2258 4.83871C26.9355 4.83871 25.7484 5.52581 25 6.53468C24.2516 5.52581 23.0645 4.83871 21.7742 4.83871C19.5508 4.83871 17.7419 6.64758 17.7419 8.87097C17.7419 10.2048 18.8274 11.2903 20.1613 11.2903C21.4952 11.2903 22.5806 10.2048 22.5806 8.87097V8.06452H20.9677V8.87097C20.9677 9.31613 20.6065 9.67742 20.1613 9.67742C19.7161 9.67742 19.3548 9.31613 19.3548 8.87097C19.3548 7.5371 20.4403 6.45161 21.7742 6.45161C22.8935 6.45161 24.1935 7.50887 24.1935 8.87097C24.1935 11.0944 22.3847 12.9032 20.1613 12.9032C19.2202 12.9032 18.5726 12.4169 17.8226 11.8548C16.9653 11.2121 15.9944 10.4839 14.5161 10.4839C12.0669 10.4839 10.4839 12.3831 10.4839 15.3226C10.4839 16.2677 11.0339 17.0798 11.8266 17.4774C10.5524 18.4355 8.95968 19.3548 8.06452 19.3548V19.2065C9.00081 18.8726 9.67742 17.9855 9.67742 16.9355C9.67742 15.6016 8.59194 14.5161 7.25806 14.5161H5.64516V12.7669C6.59436 12.4589 7.32258 11.6323 7.45161 10.5968L7.97016 6.45161H8.06452C8.95403 6.45161 9.67742 5.72823 9.67742 4.83871V3.22581C9.67742 2.33629 8.95403 1.6129 8.06452 1.6129H5.64516V0H4.03226V1.6129H1.6129C0.723387 1.6129 0 2.33629 0 3.22581V4.83871C0 5.72823 0.723387 6.45161 1.6129 6.45161H1.70726L2.225 10.5968C2.35403 11.6323 3.08226 12.4597 4.03145 12.7669V14.5161H2.41935C1.08548 14.5161 0 15.6016 0 16.9355C0 17.9855 0.676613 18.8726 1.6129 19.2065V50H7.25806H8.06452H41.9355H42.7419H48.3871V19.2065C49.3234 18.8726 50 17.9855 50 16.9355C50 15.6016 48.9145 14.5161 47.5806 14.5161H45.9677V12.7669C46.9169 12.4589 47.6452 11.6323 47.7742 10.5968ZM1.6129 3.22581H8.06452L8.06613 4.83871H1.6129V3.22581ZM6.34435 6.45161L6.14274 8.06452H3.53468L3.33306 6.45161H6.34435ZM3.73629 9.67742H5.94194L5.85242 10.3968C5.7879 10.9056 5.35242 11.2903 4.83871 11.2903C4.325 11.2903 3.88952 10.9056 3.82581 10.3968L3.73629 9.67742ZM41.9355 22.5806C39.9185 22.5806 36.4403 20.5073 34.5798 18.646C33.2234 17.2903 29.9524 16.129 28.2258 16.129H25.8065V14.5161H29.0323C31.2444 14.5161 34.2766 16.0621 35.7202 17.5056C36.9274 18.7129 39.9895 20.9677 41.9355 20.9677V22.5806ZM41.9355 41.9355H40.3226V23.9524C40.8847 24.1048 41.429 24.1935 41.9355 24.1935V41.9355ZM8.06452 24.1935C8.57097 24.1935 9.11532 24.1048 9.67742 23.9524V41.9355H8.06452V24.1935ZM11.2903 23.3645C12.4177 22.8621 13.5395 22.1863 14.5161 21.4863V41.9355H11.2903V23.3645ZM16.129 31.4516V20.1944C16.2831 20.0548 16.429 19.9177 16.5605 19.7863C17.0992 19.2476 18.2169 18.6734 19.3548 18.2694V24.6145C17.3863 26.2427 16.129 28.7032 16.129 31.4516C16.129 34.2 17.3863 36.6605 19.3548 38.2895V41.9355H16.129V31.4516ZM25.8065 38.6621V34.6774H27.4194C28.3089 34.6774 29.0323 33.954 29.0323 33.0645V29.8387C29.0323 28.9492 28.3089 28.2258 27.4194 28.2258H25.8065V24.2411C29.4298 24.6435 32.2581 27.7218 32.2581 31.4516C32.2581 35.1815 29.4298 38.2597 25.8065 38.6621ZM17.7419 31.4516C17.7419 27.7218 20.5702 24.6435 24.1935 24.2411V28.2258H22.5806C21.6911 28.2258 20.9677 28.9492 20.9677 29.8387V33.0645C20.9677 33.954 21.6911 34.6774 22.5806 34.6774H24.1935V38.6621C20.5702 38.2597 17.7419 35.1815 17.7419 31.4516ZM24.1935 33.0645H22.5806V29.8387H24.1935V33.0645ZM25.8065 29.8387H27.4194V33.0645H25.8065V29.8387ZM25.8065 22.6218V17.7419H28.2258C28.4629 17.7419 28.7411 17.7782 29.0323 17.829V23.5597C28.0476 23.0548 26.9597 22.7258 25.8065 22.6218ZM24.1935 22.6218C23.0403 22.7266 21.9524 23.0548 20.9677 23.5605V17.8298C21.2589 17.7782 21.5371 17.7419 21.7742 17.7419H24.1935V22.6218ZM20.9677 39.3435C21.9524 39.8484 23.0403 40.1774 24.1935 40.2823V41.9355H20.9677V39.3435ZM25.8065 40.2815C26.9597 40.1766 28.0476 39.8484 29.0323 39.3427V41.9355H25.8065V40.2815ZM30.6452 38.2895C32.6137 36.6613 33.871 34.2008 33.871 31.4516C33.871 28.7024 32.6137 26.2427 30.6452 24.6137V18.2685C31.7823 18.6734 32.9008 19.2476 33.4395 19.7855C33.571 19.9169 33.7177 20.054 33.871 20.1936V31.4516V41.9355H30.6452V38.2895ZM35.4839 21.4863C36.4605 22.1863 37.5823 22.8621 38.7097 23.3645V41.9355H35.4839V21.4863ZM37.0968 16.129C36.6516 16.129 36.2903 15.7677 36.2903 15.3226C36.2903 14.8774 36.6516 14.5161 37.0968 14.5161C37.5419 14.5161 37.9032 14.8774 37.9032 15.3226C37.9032 15.7677 37.5419 16.129 37.0968 16.129ZM35.4839 12.0968C36.3363 12.0968 36.8887 12.4419 37.2492 12.9185C37.1984 12.9153 37.1492 12.9032 37.0968 12.9032C35.9556 12.9032 35.0024 13.6992 34.7492 14.7645C34.0411 14.3339 33.2685 13.946 32.4669 13.6355C32.704 13.475 32.9282 13.3073 33.1452 13.1452C33.8952 12.5831 34.5427 12.0968 35.4839 12.0968ZM25 11.7637C25.2508 12.1806 25.55 12.5653 25.896 12.9032H24.1048C24.45 12.5645 24.7492 12.1806 25 11.7637ZM14.5161 12.0968C15.4573 12.0968 16.1048 12.5831 16.8548 13.1452C17.0718 13.3073 17.2952 13.475 17.5331 13.6355C16.7315 13.9452 15.9597 14.3339 15.2508 14.7645C14.9976 13.6992 14.0444 12.9032 12.9032 12.9032C12.8508 12.9032 12.8016 12.9153 12.7508 12.9185C13.1113 12.4419 13.6637 12.0968 14.5161 12.0968ZM12.9032 14.5161C13.3484 14.5161 13.7097 14.8774 13.7097 15.3226C13.7097 15.7677 13.3484 16.129 12.9032 16.129C12.4581 16.129 12.0968 15.7677 12.0968 15.3226C12.0968 14.8774 12.4581 14.5161 12.9032 14.5161ZM14.2798 17.5056C15.7234 16.0621 18.7556 14.5161 20.9677 14.5161H24.1935V16.129H21.7742C20.0476 16.129 16.7766 17.2903 15.4202 18.646C13.5597 20.5073 10.0815 22.5806 8.06452 22.5806V20.9677C10.0105 20.9677 13.0726 18.7129 14.2798 17.5056ZM2.41935 16.129H7.25806C7.70323 16.129 8.06452 16.4903 8.06452 16.9355C8.06452 17.3806 7.70323 17.7419 7.25806 17.7419H2.41935C1.97419 17.7419 1.6129 17.3806 1.6129 16.9355C1.6129 16.4903 1.97419 16.129 2.41935 16.129ZM3.22581 48.3871V19.3548H6.45161V48.3871H3.22581ZM8.06452 43.5484H24.1935V48.3871H8.06452V43.5484ZM25.8065 48.3871V43.5484H41.9355V48.3871H25.8065ZM43.5484 48.3871V19.3548H46.7742V48.3871H43.5484ZM48.3871 16.9355C48.3871 17.3806 48.0258 17.7419 47.5806 17.7419H42.7419C42.2968 17.7419 41.9355 17.3806 41.9355 16.9355C41.9355 16.4903 42.2968 16.129 42.7419 16.129H47.5806C48.0258 16.129 48.3871 16.4903 48.3871 16.9355ZM41.9355 3.22581H48.3871V4.83871H41.9355V3.22581ZM46.6669 6.45161L46.4653 8.06452H43.8565L43.6548 6.45161H46.6669ZM44.0589 9.67742H46.2645L46.175 10.3968C46.1105 10.9056 45.675 11.2903 45.1613 11.2903C44.6476 11.2903 44.2121 10.9056 44.1484 10.3968L44.0589 9.67742Z" fill="#BE8553"/>
</svg>
