<svg width="16" height="16" viewBox="0 0 16 16" fill="none" xmlns="http://www.w3.org/2000/svg">
<path d="M15.1794 6.95923C15.179 6.95886 15.1787 6.9585 15.1783 6.95813L8.81477 0.431641C8.54352 0.15332 8.1829 0 7.7993 0C7.4157 0 7.05508 0.153198 6.78371 0.431519L0.423484 6.95471C0.421342 6.95691 0.419199 6.95923 0.417057 6.96143C-0.13995 7.53601 -0.138998 8.46826 0.419794 9.04138C0.675089 9.30334 1.01227 9.45508 1.37278 9.47095C1.38742 9.47241 1.40217 9.47314 1.41705 9.47314H1.67068V14.2762C1.67068 15.2267 2.42466 16 3.35158 16H5.84121C6.09353 16 6.29824 15.7902 6.29824 15.5312V11.7656C6.29824 11.3319 6.6422 10.9791 7.06507 10.9791H8.53353C8.9564 10.9791 9.30036 11.3319 9.30036 11.7656V15.5312C9.30036 15.7902 9.50495 16 9.75739 16H12.247C13.1739 16 13.9279 15.2267 13.9279 14.2762V9.47314H14.1631C14.5466 9.47314 14.9072 9.31995 15.1787 9.04163C15.7381 8.46753 15.7383 7.53369 15.1794 6.95923Z" fill="#BE8553"/>
</svg>
