<svg width="90" height="90" viewBox="0 0 90 90" fill="none" xmlns="http://www.w3.org/2000/svg">
<path d="M89.9265 29.9531C89.941 29.8599 89.941 29.7651 89.9265 29.6719C89.9111 29.5838 89.8827 29.4985 89.8421 29.4188L89.7015 29.2078L89.5046 28.9969C89.4801 28.9653 89.4518 28.937 89.4203 28.9125L65.3171 11.5875V1.40625C65.3171 1.03329 65.169 0.675604 64.9053 0.411881C64.6415 0.148158 64.2838 0 63.9109 0L25.9421 0C25.5692 0 25.2115 0.148158 24.9478 0.411881C24.684 0.675604 24.5359 1.03329 24.5359 1.40625V11.5875L0.517132 28.9125C0.485594 28.937 0.457249 28.9653 0.432757 28.9969L0.235882 29.2078C0.184182 29.2748 0.137194 29.3453 0.0952571 29.4188C0.0547118 29.4985 0.0262743 29.5838 0.0108821 29.6719C-0.00362736 29.7651 -0.00362736 29.8599 0.0108821 29.9531C0.00289788 29.9902 0.00289788 30.0285 0.0108821 30.0656V88.5938C0.0108821 88.9667 0.15904 89.3244 0.422763 89.5881C0.686486 89.8518 1.04417 90 1.41713 90H88.5203C88.8932 90 89.2509 89.8518 89.5146 89.5881C89.7784 89.3244 89.9265 88.9667 89.9265 88.5938V30.0656C89.9345 30.0285 89.9345 29.9902 89.9265 29.9531ZM84.2031 28.6594H71.8281C71.602 28.6628 71.3801 28.7207 71.1812 28.8281H65.3171V15.0469L84.2031 28.6594ZM65.3171 31.6406H70.4218V87.1875H65.3171V31.6406ZM24.5359 28.8281H18.6718C18.4771 28.7229 18.2603 28.665 18.039 28.6594H5.69213L24.5359 15.0469V28.8281ZM2.73901 31.4719H16.6328V87.1875H2.73901V31.4719ZM19.4453 31.6406H24.5359V87.1875H19.4453V31.6406ZM43.5203 71.2547L43.6328 87.1875H34.8437V71.2547H43.5203ZM46.4453 87.1875L46.3328 71.2547H54.9953V87.1875H46.4453ZM57.8218 87.1875V69.8484C57.8218 69.4755 57.6737 69.1178 57.4099 68.8541C57.1462 68.5903 56.7885 68.4422 56.4156 68.4422H33.4374C33.0645 68.4422 32.7068 68.5903 32.4431 68.8541C32.1794 69.1178 32.0312 69.4755 32.0312 69.8484V87.1875H27.3484V2.8125H62.5046V87.1875H57.8218ZM87.114 87.1875H73.2343V31.4719H87.114V87.1875Z" fill="#BE8553"/>
<path d="M58.9893 15.7078H51.2549V8.01562C51.2549 7.64266 51.1067 7.28498 50.843 7.02126C50.5793 6.75753 50.2216 6.60938 49.8486 6.60938H40.0049C39.6319 6.60938 39.2742 6.75753 39.0105 7.02126C38.7468 7.28498 38.5986 7.64266 38.5986 8.01562V15.7078H30.8643C30.4913 15.7078 30.1336 15.856 29.8699 16.1197C29.6062 16.3834 29.458 16.7411 29.458 17.1141V26.9578C29.458 27.3308 29.6062 27.6885 29.8699 27.9522C30.1336 28.2159 30.4913 28.3641 30.8643 28.3641H38.5986V36.0422C38.5986 36.4151 38.7468 36.7728 39.0105 37.0366C39.2742 37.3003 39.6319 37.4484 40.0049 37.4484H49.8486C50.2216 37.4484 50.5793 37.3003 50.843 37.0366C51.1067 36.7728 51.2549 36.4151 51.2549 36.0422V28.3641H58.9893C59.3622 28.3641 59.7199 28.2159 59.9836 27.9522C60.2474 27.6885 60.3955 27.3308 60.3955 26.9578V17.1141C60.3955 16.7411 60.2474 16.3834 59.9836 16.1197C59.7199 15.856 59.3622 15.7078 58.9893 15.7078ZM57.583 25.5516H49.8486C49.4757 25.5516 49.118 25.6997 48.8543 25.9634C48.5905 26.2272 48.4424 26.5849 48.4424 26.9578V34.6359H41.4111V26.9578C41.4111 26.5849 41.263 26.2272 40.9993 25.9634C40.7355 25.6997 40.3778 25.5516 40.0049 25.5516H32.2705V18.5203H40.0049C40.3778 18.5203 40.7355 18.3722 40.9993 18.1084C41.263 17.8447 41.4111 17.487 41.4111 17.1141V9.42188H48.4424V17.1141C48.4424 17.487 48.5905 17.8447 48.8543 18.1084C49.118 18.3722 49.4757 18.5203 49.8486 18.5203H57.583V25.5516Z" fill="#BE8553"/>
<path d="M57.8224 43.5938H32.0317C31.6588 43.5938 31.3011 43.7419 31.0374 44.0056C30.7736 44.2694 30.6255 44.627 30.6255 45C30.6255 45.373 30.7736 45.7306 31.0374 45.9944C31.3011 46.2581 31.6588 46.4062 32.0317 46.4062H57.8224C58.1953 46.4062 58.553 46.2581 58.8167 45.9944C59.0805 45.7306 59.2286 45.373 59.2286 45C59.2286 44.627 59.0805 44.2694 58.8167 44.0056C58.553 43.7419 58.1953 43.5938 57.8224 43.5938Z" fill="#BE8553"/>
<path d="M57.8224 49.2188H32.0317C31.6588 49.2188 31.3011 49.3669 31.0374 49.6306C30.7736 49.8944 30.6255 50.252 30.6255 50.625C30.6255 50.998 30.7736 51.3556 31.0374 51.6194C31.3011 51.8831 31.6588 52.0312 32.0317 52.0312H57.8224C58.1953 52.0312 58.553 51.8831 58.8167 51.6194C59.0805 51.3556 59.2286 50.998 59.2286 50.625C59.2286 50.252 59.0805 49.8944 58.8167 49.6306C58.553 49.3669 58.1953 49.2188 57.8224 49.2188Z" fill="#BE8553"/>
<path d="M57.8224 54.8438H32.0317C31.6588 54.8438 31.3011 54.9919 31.0374 55.2556C30.7736 55.5194 30.6255 55.877 30.6255 56.25C30.6255 56.623 30.7736 56.9806 31.0374 57.2444C31.3011 57.5081 31.6588 57.6562 32.0317 57.6562H57.8224C58.1953 57.6562 58.553 57.5081 58.8167 57.2444C59.0805 56.9806 59.2286 56.623 59.2286 56.25C59.2286 55.877 59.0805 55.5194 58.8167 55.2556C58.553 54.9919 58.1953 54.8438 57.8224 54.8438Z" fill="#BE8553"/>
<path d="M57.8224 60.4688H32.0317C31.6588 60.4688 31.3011 60.6169 31.0374 60.8806C30.7736 61.1444 30.6255 61.502 30.6255 61.875C30.6255 62.248 30.7736 62.6056 31.0374 62.8694C31.3011 63.1331 31.6588 63.2812 32.0317 63.2812H57.8224C58.1953 63.2812 58.553 63.1331 58.8167 62.8694C59.0805 62.6056 59.2286 62.248 59.2286 61.875C59.2286 61.502 59.0805 61.1444 58.8167 60.8806C58.553 60.6169 58.1953 60.4688 57.8224 60.4688Z" fill="#BE8553"/>
<path d="M13.7643 43.5938H5.55176C5.1788 43.5938 4.82111 43.7419 4.55739 44.0056C4.29367 44.2694 4.14551 44.627 4.14551 45C4.14551 45.373 4.29367 45.7306 4.55739 45.9944C4.82111 46.2581 5.1788 46.4062 5.55176 46.4062H13.708C14.081 46.4062 14.4387 46.2581 14.7024 45.9944C14.9661 45.7306 15.1143 45.373 15.1143 45C15.1143 44.627 14.9661 44.2694 14.7024 44.0056C14.4387 43.7419 14.081 43.5938 13.708 43.5938H13.7643Z" fill="#BE8553"/>
<path d="M13.7643 49.2188H5.55176C5.1788 49.2188 4.82111 49.3669 4.55739 49.6306C4.29367 49.8944 4.14551 50.252 4.14551 50.625C4.14551 50.998 4.29367 51.3556 4.55739 51.6194C4.82111 51.8831 5.1788 52.0312 5.55176 52.0312H13.708C14.081 52.0312 14.4387 51.8831 14.7024 51.6194C14.9661 51.3556 15.1143 50.998 15.1143 50.625C15.1143 50.252 14.9661 49.8944 14.7024 49.6306C14.4387 49.3669 14.081 49.2188 13.708 49.2188H13.7643Z" fill="#BE8553"/>
<path d="M13.7643 54.8438H5.55176C5.1788 54.8438 4.82111 54.9919 4.55739 55.2556C4.29367 55.5194 4.14551 55.877 4.14551 56.25C4.14551 56.623 4.29367 56.9806 4.55739 57.2444C4.82111 57.5081 5.1788 57.6562 5.55176 57.6562H13.708C14.081 57.6562 14.4387 57.5081 14.7024 57.2444C14.9661 56.9806 15.1143 56.623 15.1143 56.25C15.1143 55.877 14.9661 55.5194 14.7024 55.2556C14.4387 54.9919 14.081 54.8438 13.708 54.8438H13.7643Z" fill="#BE8553"/>
<path d="M13.7643 60.4688H5.55176C5.1788 60.4688 4.82111 60.6169 4.55739 60.8806C4.29367 61.1444 4.14551 61.502 4.14551 61.875C4.14551 62.248 4.29367 62.6056 4.55739 62.8694C4.82111 63.1331 5.1788 63.2812 5.55176 63.2812H13.708C14.081 63.2812 14.4387 63.1331 14.7024 62.8694C14.9661 62.6056 15.1143 62.248 15.1143 61.875C15.1143 61.502 14.9661 61.1444 14.7024 60.8806C14.4387 60.6169 14.081 60.4688 13.708 60.4688H13.7643Z" fill="#BE8553"/>
<path d="M13.7643 66.0938H5.55176C5.1788 66.0938 4.82111 66.2419 4.55739 66.5056C4.29367 66.7694 4.14551 67.127 4.14551 67.5C4.14551 67.873 4.29367 68.2306 4.55739 68.4944C4.82111 68.7581 5.1788 68.9062 5.55176 68.9062H13.708C14.081 68.9062 14.4387 68.7581 14.7024 68.4944C14.9661 68.2306 15.1143 67.873 15.1143 67.5C15.1143 67.127 14.9661 66.7694 14.7024 66.5056C14.4387 66.2419 14.081 66.0938 13.708 66.0938H13.7643Z" fill="#BE8553"/>
<path d="M13.7643 71.7188H5.55176C5.1788 71.7188 4.82111 71.8669 4.55739 72.1306C4.29367 72.3944 4.14551 72.752 4.14551 73.125C4.14551 73.498 4.29367 73.8556 4.55739 74.1194C4.82111 74.3831 5.1788 74.5312 5.55176 74.5312H13.708C14.081 74.5312 14.4387 74.3831 14.7024 74.1194C14.9661 73.8556 15.1143 73.498 15.1143 73.125C15.1143 72.752 14.9661 72.3944 14.7024 72.1306C14.4387 71.8669 14.081 71.7188 13.708 71.7188H13.7643Z" fill="#BE8553"/>
<path d="M13.7643 77.3438H5.55176C5.1788 77.3438 4.82111 77.4919 4.55739 77.7556C4.29367 78.0194 4.14551 78.377 4.14551 78.75C4.14551 79.123 4.29367 79.4806 4.55739 79.7444C4.82111 80.0081 5.1788 80.1562 5.55176 80.1562H13.708C14.081 80.1562 14.4387 80.0081 14.7024 79.7444C14.9661 79.4806 15.1143 79.123 15.1143 78.75C15.1143 78.377 14.9661 78.0194 14.7024 77.7556C14.4387 77.4919 14.081 77.3438 13.708 77.3438H13.7643Z" fill="#BE8553"/>
<path d="M76.0893 46.4062H84.3018C84.6747 46.4062 85.0324 46.2581 85.2961 45.9944C85.5598 45.7306 85.708 45.373 85.708 45C85.708 44.627 85.5598 44.2694 85.2961 44.0056C85.0324 43.7419 84.6747 43.5938 84.3018 43.5938H76.1455C75.7725 43.5938 75.4149 43.7419 75.1511 44.0056C74.8874 44.2694 74.7393 44.627 74.7393 45C74.7393 45.373 74.8874 45.7306 75.1511 45.9944C75.4149 46.2581 75.7725 46.4062 76.1455 46.4062H76.0893Z" fill="#BE8553"/>
<path d="M76.0893 52.0312H84.3018C84.6747 52.0312 85.0324 51.8831 85.2961 51.6194C85.5598 51.3556 85.708 50.998 85.708 50.625C85.708 50.252 85.5598 49.8944 85.2961 49.6306C85.0324 49.3669 84.6747 49.2188 84.3018 49.2188H76.1455C75.7725 49.2188 75.4149 49.3669 75.1511 49.6306C74.8874 49.8944 74.7393 50.252 74.7393 50.625C74.7393 50.998 74.8874 51.3556 75.1511 51.6194C75.4149 51.8831 75.7725 52.0312 76.1455 52.0312H76.0893Z" fill="#BE8553"/>
<path d="M76.0893 57.6562H84.3018C84.6747 57.6562 85.0324 57.5081 85.2961 57.2444C85.5598 56.9806 85.708 56.623 85.708 56.25C85.708 55.877 85.5598 55.5194 85.2961 55.2556C85.0324 54.9919 84.6747 54.8438 84.3018 54.8438H76.1455C75.7725 54.8438 75.4149 54.9919 75.1511 55.2556C74.8874 55.5194 74.7393 55.877 74.7393 56.25C74.7393 56.623 74.8874 56.9806 75.1511 57.2444C75.4149 57.5081 75.7725 57.6562 76.1455 57.6562H76.0893Z" fill="#BE8553"/>
<path d="M76.0893 63.2812H84.3018C84.6747 63.2812 85.0324 63.1331 85.2961 62.8694C85.5598 62.6056 85.708 62.248 85.708 61.875C85.708 61.502 85.5598 61.1444 85.2961 60.8806C85.0324 60.6169 84.6747 60.4688 84.3018 60.4688H76.1455C75.7725 60.4688 75.4149 60.6169 75.1511 60.8806C74.8874 61.1444 74.7393 61.502 74.7393 61.875C74.7393 62.248 74.8874 62.6056 75.1511 62.8694C75.4149 63.1331 75.7725 63.2812 76.1455 63.2812H76.0893Z" fill="#BE8553"/>
<path d="M76.0893 68.9062H84.3018C84.6747 68.9062 85.0324 68.7581 85.2961 68.4944C85.5598 68.2306 85.708 67.873 85.708 67.5C85.708 67.127 85.5598 66.7694 85.2961 66.5056C85.0324 66.2419 84.6747 66.0938 84.3018 66.0938H76.1455C75.7725 66.0938 75.4149 66.2419 75.1511 66.5056C74.8874 66.7694 74.7393 67.127 74.7393 67.5C74.7393 67.873 74.8874 68.2306 75.1511 68.4944C75.4149 68.7581 75.7725 68.9062 76.1455 68.9062H76.0893Z" fill="#BE8553"/>
<path d="M76.0893 74.5312H84.3018C84.6747 74.5312 85.0324 74.3831 85.2961 74.1194C85.5598 73.8556 85.708 73.498 85.708 73.125C85.708 72.752 85.5598 72.3944 85.2961 72.1306C85.0324 71.8669 84.6747 71.7188 84.3018 71.7188H76.1455C75.7725 71.7188 75.4149 71.8669 75.1511 72.1306C74.8874 72.3944 74.7393 72.752 74.7393 73.125C74.7393 73.498 74.8874 73.8556 75.1511 74.1194C75.4149 74.3831 75.7725 74.5312 76.1455 74.5312H76.0893Z" fill="#BE8553"/>
<path d="M76.0893 80.1562H84.3018C84.6747 80.1562 85.0324 80.0081 85.2961 79.7444C85.5598 79.4806 85.708 79.123 85.708 78.75C85.708 78.377 85.5598 78.0194 85.2961 77.7556C85.0324 77.4919 84.6747 77.3438 84.3018 77.3438H76.1455C75.7725 77.3438 75.4149 77.4919 75.1511 77.7556C74.8874 78.0194 74.7393 78.377 74.7393 78.75C74.7393 79.123 74.8874 79.4806 75.1511 79.7444C75.4149 80.0081 75.7725 80.1562 76.1455 80.1562H76.0893Z" fill="#BE8553"/>
</svg>
