<svg width="60" height="60" viewBox="0 0 60 60" fill="none" xmlns="http://www.w3.org/2000/svg">
<path d="M59.1209 58.2421H55.2853C55.9977 56.6618 56.5119 55.0665 56.8164 53.4835C56.908 53.0069 56.596 52.5461 56.1192 52.4544C55.6425 52.3633 55.1819 52.6749 55.0902 53.1516C54.7655 54.84 54.1784 56.55 53.3427 58.242H49.5982V56.8887C49.5982 56.4032 49.2048 56.0098 48.7193 56.0098C48.2338 56.0098 47.8404 56.4032 47.8404 56.8887V58.242H44.096C42.786 55.5902 42.0949 52.9144 42.0403 50.2805C42.0106 48.8526 42.1691 47.4126 42.5103 45.9711H54.928C55.232 47.255 55.3912 48.5373 55.4006 49.8099C55.4043 50.293 55.7971 50.6822 56.2794 50.6822H56.2861C56.7716 50.6786 57.1621 50.2821 57.1585 49.7968C57.1487 48.4891 56.9964 47.1747 56.7062 45.861C56.9766 45.7111 57.1597 45.4231 57.1597 45.092C57.1597 44.6065 56.7663 44.2131 56.2808 44.2131H56.269C55.9459 43.1702 55.5367 42.1297 55.0394 41.0955C54.7101 40.4109 54.0334 39.95 53.2799 39.8796V38.5078C53.2799 37.4444 52.4236 36.5786 51.3645 36.5606V4.44713C51.3645 1.99499 49.3696 0.000117187 46.9175 0.000117187L13.9662 0C11.5141 0 9.5191 1.99488 9.5191 4.44701V6.28451H6.75548C5.65556 6.28451 4.76084 7.17935 4.76084 8.27915V10.8921C4.49541 11.0434 4.316 11.3284 4.316 11.6558C4.316 11.9832 4.4953 12.2682 4.76084 12.4195V34.2648C3.2394 36.4747 2.34726 39.1498 2.34726 42.0297V44.4519H1.77245C1.28695 44.4519 0.893551 44.8453 0.893551 45.3308C0.893551 45.8163 1.28695 46.2097 1.77245 46.2097H2.34726V50.9488C2.34726 51.4343 2.74065 51.8277 3.22616 51.8277C3.71167 51.8277 4.10506 51.4343 4.10506 50.9488V46.2097H28.0447V58.2422H20.4241V53.3986C20.4241 52.532 19.7189 51.827 18.8525 51.827H13.2974C12.4309 51.827 11.7259 52.5321 11.7259 53.3986V58.2422H4.10506V54.463C4.10506 53.9775 3.71167 53.5841 3.22616 53.5841C2.74065 53.5841 2.34726 53.9775 2.34726 54.463V58.2422H0.878903C0.393397 58.2422 0 58.6356 0 59.1211C0 59.6066 0.393397 60 0.878903 60H59.1209C59.6064 60 59.9998 59.6066 59.9998 59.1211C59.9998 58.6356 59.6064 58.2421 59.1209 58.2421ZM13.4835 53.5847H18.6663V58.242H13.4835V53.5847ZM46.2889 36.559H46.1075C45.0329 36.559 44.1585 37.4333 44.1585 38.5079V39.8797C43.405 39.9502 42.7284 40.4111 42.3991 41.0957C41.9005 42.1328 41.4922 43.1723 41.1699 44.2134H41.1577C40.6722 44.2134 40.2788 44.6068 40.2788 45.0923C40.2788 45.4237 40.4623 45.7121 40.7333 45.8617C40.6018 46.4597 40.4995 47.0581 40.426 47.6567H37.0487C37.0477 44.5454 37.0485 23.6438 37.0487 17.1068C37.3141 16.9556 37.4934 16.6706 37.4934 16.3433C37.4934 16.016 37.3141 15.7308 37.0487 15.5797V12.9667C37.0487 11.8668 36.1537 10.9721 35.0539 10.9721H32.4333V8.65297C32.4333 7.77911 33.1441 7.06814 34.018 7.06814H44.704C45.5779 7.06814 46.2889 7.77911 46.2889 8.65297V36.559ZM27.8175 17.2222H35.2906V23.4815H27.8175V17.2222ZM27.8175 25.2393H35.2906V31.5348H27.8175V25.2393ZM35.0537 12.7298C35.1844 12.7298 35.2906 12.8361 35.2906 12.9666V15.4642H27.8175V12.9666C27.8175 12.8361 27.9238 12.7298 28.0543 12.7298H35.0537ZM26.0597 23.3175H15.7799V22.112H26.0597V23.3175ZM13.9917 15.4299H12.0121C11.5266 15.4299 11.1332 15.8233 11.1332 16.3088C11.1332 16.7943 11.5266 17.1877 12.0121 17.1877H13.9917V23.4832H6.51853V17.1877H8.49805C8.98356 17.1877 9.37696 16.7943 9.37696 16.3088C9.37696 15.8233 8.98356 15.4299 8.49805 15.4299H6.51853V12.5347H13.9917V15.4299ZM13.9917 25.241V28.4599C11.1094 28.9005 8.52008 30.2414 6.51853 32.1847V25.241H13.9917ZM15.7495 25.0753H26.0445C26.0446 25.2535 26.0407 33.1222 26.0598 32.6192C23.5549 29.963 20.0055 28.3021 16.0749 28.3021C15.9661 28.3021 15.8578 28.3037 15.7496 28.3062V25.0753H15.7495ZM27.8175 33.2926H35.2906V41.4187H29.7881C29.6838 39.0505 28.9774 36.836 27.8175 34.9257V33.2926ZM30.3772 46.2095C30.8627 46.2095 31.2561 45.8161 31.2561 45.3306C31.2561 44.8451 30.8627 44.4517 30.3772 44.4517H29.8025V43.1764H35.2908V47.6566H29.8025V46.2094H30.3772V46.2095ZM29.8025 49.4145H40.2936C40.2821 49.8243 40.2842 50.2341 40.3 50.6438H29.8027V49.4145H29.8025ZM40.4506 52.4016C40.7104 54.3524 41.2778 56.301 42.1536 58.2421H37.0486V52.4016H40.4506ZM53.4553 41.8575C53.8319 42.6406 54.153 43.4266 54.4208 44.2134H43.0184C43.2863 43.4267 43.6066 42.641 43.9832 41.8576C44.0506 41.7175 44.1984 41.6269 44.3596 41.6269H53.0791C53.2403 41.6269 53.388 41.7174 53.4553 41.8575ZM51.5222 38.5079V39.8691H45.9163V38.5079C45.9163 38.4025 46.002 38.3168 46.1075 38.3168H51.3312C51.4364 38.3168 51.5222 38.4024 51.5222 38.5079ZM11.2769 4.44701C11.2769 2.96425 12.4833 1.75781 13.9662 1.75781L46.9176 1.75792C48.4004 1.75792 49.6068 2.96436 49.6068 4.44713V36.5588H48.0467V8.65297C48.0467 6.80974 46.5472 5.31033 44.704 5.31033H34.018C32.1749 5.31033 30.6755 6.80986 30.6755 8.65297V10.972H28.0547C26.9548 10.972 26.0601 11.8668 26.0601 12.9666V15.5795C25.7946 15.7308 25.6152 16.0158 25.6152 16.3433C25.6152 16.6707 25.7945 16.9557 26.0601 17.107V20.3543H15.7803C15.7636 14.1512 15.8056 23.2435 15.7497 12.4195C16.0151 12.2682 16.1945 11.9832 16.1945 11.6558C16.1945 11.3284 16.0152 11.0434 15.7497 10.8921V8.27915C15.7497 7.17923 14.8549 6.28451 13.7551 6.28451H11.2769V4.44701ZM6.75548 8.04231H13.7548C13.8854 8.04231 13.9917 8.1486 13.9917 8.27915V10.7768H6.51853V8.27915C6.51853 8.1486 6.62494 8.04231 6.75548 8.04231ZM4.10506 44.4517V42.0296C4.10506 35.4295 9.47469 30.0598 16.075 30.0598C22.6751 30.0598 28.0449 35.4294 28.0449 42.0296V44.4517H4.10506ZM29.8025 52.4016H35.2908V58.2421H29.8025V52.4016Z" fill="#BE8553"/>
<path d="M16.0749 34.3942C15.2425 34.3942 14.4656 34.9949 13.8871 36.0858C13.4697 36.8728 13.2002 37.8395 13.2002 38.5487C13.2002 40.1339 14.4898 41.4235 16.0749 41.4235C17.6601 41.4235 18.9498 40.1339 18.9498 38.5487C18.9498 37.8395 18.6801 36.8728 18.2628 36.0858C17.6844 34.9949 16.9074 34.3942 16.0749 34.3942ZM16.0749 39.6656C15.459 39.6656 14.958 39.1645 14.958 38.5486C14.958 37.5941 15.727 36.2064 16.0712 36.1517C16.423 36.2062 17.1919 37.594 17.1919 38.5486C17.1921 39.1645 16.6909 39.6656 16.0749 39.6656Z" fill="#BE8553"/>
</svg>
