<svg width="46" height="50" viewBox="0 0 46 50" fill="none" xmlns="http://www.w3.org/2000/svg">
<path d="M42.0721 21.3768C44.1022 21.2692 45.7265 19.2181 45.7265 16.7126C45.7265 14.4268 44.3746 12.5195 42.5966 12.1201V11.5238C42.7637 11.3636 42.9159 11.1858 43.0505 10.9871C43.144 10.849 43.1875 10.6827 43.1737 10.516C42.9361 7.65648 41.638 5.0045 39.5174 3.04909C37.3854 1.08299 34.6106 0 31.7039 0H28.5263C22.1779 0 17.0133 5.14717 17.0133 11.4735V11.6344C17.0133 11.8618 17.1194 12.0766 17.3002 12.2154C17.558 12.4134 17.8552 12.5797 18.1825 12.7094C18.2092 12.7201 18.2359 12.7281 18.2626 12.738V18.0748C18.2626 21.3387 19.3528 24.0772 21.415 25.9945C22.0158 26.553 22.6945 27.0317 23.4345 27.4261C23.1221 27.7344 22.836 28.0651 22.5781 28.4164C21.671 28.7918 20.6883 28.9894 19.6736 28.9894C19.4886 28.9894 19.3048 28.9814 19.122 28.9677V26.6476C19.122 25.8991 18.5105 25.2903 17.7591 25.2903H16.662C16.6517 24.1375 15.7053 23.2025 14.5429 23.2025H10.507C9.34473 23.2025 8.39793 24.1375 8.38764 25.2903H7.29093C6.53906 25.2903 5.92795 25.8991 5.92795 26.6476V36.9129H1.36297C0.611487 36.9129 0 37.5217 0 38.2702V48.6427C0 49.3912 0.611487 50 1.36297 50H27.8915C27.9472 50 28.0018 49.9935 28.0544 49.9813C28.6419 49.918 29.1736 49.6742 29.5944 49.3088C30.0147 49.6735 30.5454 49.9172 31.1321 49.9809C31.1851 49.9935 31.2408 49.9996 31.2976 49.9996H39.7226C41.6414 49.9996 43.2023 48.4501 43.2023 46.545C43.2023 44.8311 41.9382 43.4055 40.2872 43.137V41.6988C40.2872 41.2945 39.9595 40.9664 39.5548 40.9664C39.1501 40.9664 38.8224 41.2945 38.8224 41.6988V43.0908H34.0766C33.6783 42.0155 32.6396 41.2659 31.4391 41.2659C30.7334 41.2659 30.0884 41.526 29.594 41.954C29.1 41.526 28.4549 41.2659 27.7496 41.2659C26.5491 41.2659 25.5104 42.0155 25.1122 43.0908H24.9233V41.0633C25.4498 41.1308 25.9769 41.1652 26.5026 41.1652C31.124 41.1652 35.5818 38.6063 37.752 34.2152C38.072 33.5674 38.1197 32.8354 37.8855 32.1541C37.6509 31.4705 37.1619 30.92 36.5084 30.6042C35.1672 29.9564 33.5399 30.5138 32.8807 31.847C32.2528 33.1173 31.2648 34.1572 30.0239 34.8541C29.671 35.0521 29.5455 35.4988 29.7435 35.8513C29.9419 36.2041 30.3882 36.3297 30.7411 36.1317C32.2406 35.2894 33.4346 34.0324 34.1941 32.4959C34.4981 31.8802 35.2507 31.6238 35.871 31.9233C36.1701 32.0675 36.3932 32.3185 36.5 32.6298C36.6061 32.9388 36.5843 33.2714 36.4386 33.5663C34.2757 37.9429 29.5379 40.2519 24.9233 39.5813V39.4234C25.2884 38.942 25.528 38.3602 25.5924 37.7201C25.6107 37.5404 25.6134 37.3608 25.6024 37.1826C26.1025 37.2375 26.6075 37.2498 27.1122 37.2154C27.5158 37.1876 27.8202 36.8378 27.7927 36.4342C27.7649 36.0306 27.4155 35.7277 27.0115 35.7536C26.3733 35.7979 25.734 35.7513 25.1114 35.6232C25.09 35.5885 25.0683 35.5537 25.0458 35.5194L24.2977 33.5636C24.0727 32.9681 23.4944 32.5684 22.8581 32.5684C22.7334 32.5684 22.6101 32.5848 22.4892 32.6145C22.6773 30.7571 23.5363 29.1878 24.8844 28.0621C25.5421 28.2944 26.2341 28.4683 26.952 28.5816C27.2591 29.9648 28.503 31.0036 29.9869 31.0036C31.4361 31.0036 32.6564 30.0133 32.9989 28.6785C34.104 28.5648 35.1664 28.2822 36.1563 27.8534C37.8313 29.1199 38.822 31.0234 38.822 33.3008V38.2812C38.822 38.6856 39.1501 39.0137 39.5544 39.0137C39.9591 39.0137 40.2868 38.6856 40.2868 38.2812V33.3008C40.2868 30.8186 39.3469 28.6842 37.5662 27.1145C39.6543 25.8141 41.2794 23.8075 42.0721 21.3768ZM30.0933 44.0578C30.0933 43.3262 30.6972 42.7307 31.4395 42.7307C32.1246 42.7307 32.6991 43.2365 32.7762 43.9068C32.8189 44.2768 33.1317 44.5557 33.5036 44.5557H39.7226C40.8338 44.5557 41.7375 45.4483 41.7375 46.5454C41.7375 47.6425 40.8338 48.5352 39.7226 48.5352H31.3987C31.3815 48.5329 31.3644 48.531 31.3468 48.5298C30.6438 48.4829 30.0933 47.9019 30.0933 47.208V44.0578ZM24.9237 44.5557H25.6855C26.0578 44.5557 26.3706 44.2768 26.413 43.9068C26.49 43.2365 27.0649 42.7307 27.75 42.7307C28.1563 42.7307 28.5206 42.91 28.7677 43.1919C28.6777 43.4647 28.6285 43.7557 28.6285 44.0578V47.208C28.6285 47.5086 28.6777 47.7989 28.7677 48.0713C28.54 48.3311 28.2131 48.505 27.8423 48.5298C27.8248 48.531 27.8076 48.5329 27.7904 48.5352H24.9237V44.5557ZM19.122 30.4363C19.3051 30.4474 19.489 30.4543 19.6736 30.4543C20.3179 30.4543 20.9504 30.3852 21.5653 30.2551C21.2231 31.1291 21.024 32.0808 20.9908 33.0917C20.5567 33.1394 20.1173 33.1638 19.6736 33.1638C19.489 33.1638 19.3051 33.1585 19.122 33.1497V30.4363ZM19.2407 41.5382C19.3261 41.5382 19.5104 41.6424 19.5535 41.7152L20.4675 43.2838C20.5083 43.3548 20.5083 43.5577 20.4675 43.6291L19.5535 45.1973C19.5104 45.2702 19.3261 45.3747 19.2407 45.3747H17.4127C17.3269 45.3747 17.1426 45.2702 17.0995 45.1973L16.1855 43.6287C16.1447 43.5577 16.1447 43.3548 16.1855 43.2838L17.0995 41.7152C17.1426 41.6424 17.3269 41.5379 17.4127 41.5379H19.2407V41.5382ZM10.507 24.6674H14.5429C14.8973 24.6674 15.1865 24.9451 15.1968 25.2903H9.85322C9.86352 24.9451 10.1523 24.6674 10.507 24.6674ZM7.39278 26.7551H17.6572V36.9129H7.39278V26.7551ZM11.7296 48.5352H1.46482V38.3778H11.7296V48.5352ZM23.4589 48.5352H13.1945V38.3778H18.1352C18.1009 38.4804 18.0761 38.5876 18.065 38.6993L18.0444 38.9027C17.9998 39.3501 18.1604 39.7713 18.4495 40.073H17.4127C16.8035 40.073 16.1394 40.4537 15.8338 40.9779L14.9202 42.5465C14.6127 43.0737 14.6127 43.8393 14.9202 44.3665L15.8338 45.9351C16.1397 46.4592 16.8035 46.8399 17.4127 46.8399H19.2407C19.8499 46.8399 20.514 46.4592 20.8192 45.9347L21.7332 44.3665C22.0402 43.8393 22.0402 43.074 21.7332 42.5465L20.8196 40.9779C20.749 40.8577 20.6593 40.7452 20.5563 40.6425L21.7957 40.7673C21.9144 40.7791 22.0345 40.7852 22.1532 40.7852C22.6147 40.7852 23.0557 40.6967 23.4589 40.5357V48.5352ZM22.5556 35.1028C22.7067 34.9026 22.7444 34.6386 22.6559 34.4036L22.5831 34.2117C22.5758 34.1927 22.5766 34.1736 22.585 34.1549C22.5934 34.1366 22.6075 34.1232 22.6269 34.116L22.8318 34.0385C22.8409 34.0351 22.8497 34.0332 22.8585 34.0332C22.8634 34.0332 22.91 34.0347 22.9291 34.0843L23.7088 36.1225C23.7301 36.1794 23.7587 36.2328 23.7934 36.2823C24.0597 36.6608 24.181 37.1197 24.1356 37.5736C24.0353 38.5696 23.1831 39.3208 22.1532 39.3208C22.0833 39.3208 22.0128 39.3169 21.9426 39.3101L19.5157 39.0659C19.5073 39.0652 19.5012 39.0575 19.502 39.0495L19.5226 38.8466C19.5237 38.8355 19.534 38.8329 19.539 38.8329H19.5394L21.2922 39.0091C21.6939 39.0507 22.0536 38.7566 22.0944 38.3541L22.1074 38.224C22.1272 38.0306 22.0688 37.8372 21.946 37.6869C21.8232 37.5362 21.6454 37.4409 21.452 37.4214L19.3124 37.2059C19.3055 37.2051 19.2983 37.1964 19.299 37.1895L19.3193 36.9865C19.3204 36.9755 19.3315 36.974 19.336 36.9728L21.4757 37.1883C21.6691 37.2074 21.8621 37.1494 22.0128 37.0266C22.1631 36.9038 22.2584 36.726 22.2779 36.533L22.2909 36.4025C22.3313 36.0001 22.038 35.6407 21.6355 35.6003L19.8823 35.424C19.875 35.4233 19.8678 35.4145 19.8686 35.4073L19.8892 35.2043C19.8903 35.1933 19.9014 35.1921 19.9056 35.191L21.8926 35.3909C21.8976 35.3912 21.9067 35.392 21.9113 35.3928C22.1619 35.4134 22.4049 35.3035 22.5556 35.1028ZM29.9873 29.5387C29.3815 29.5387 28.8524 29.2133 28.5679 28.7308C28.6983 28.7346 28.8288 28.7369 28.9604 28.7369H31.4029C31.1176 29.2164 30.5904 29.5387 29.9873 29.5387ZM31.898 27.272H28.9604C23.3517 27.272 19.7274 23.6622 19.7274 18.0748V12.9494C20.4648 12.8845 21.1755 12.5568 21.8308 11.9678C21.9521 11.8591 22.0711 11.742 22.189 11.6158C22.2306 11.755 22.2821 11.8885 22.3427 12.0152C22.654 12.6637 23.2064 13.1199 23.9403 13.3339C25.1324 13.6826 26.3367 13.1706 27.5333 11.8107C27.8328 12.5229 28.4439 13.0463 29.3418 13.3297C29.7359 13.4537 30.1265 13.5155 30.5126 13.5151C31.7943 13.5151 33.0214 12.8357 34.1132 11.5074C34.4836 11.0565 34.7903 10.5885 35.0302 10.1761C35.3396 10.6026 35.752 11.0767 36.275 11.4918C36.592 11.7428 37.0528 11.6898 37.3041 11.3728C37.5555 11.0558 37.5021 10.5953 37.1851 10.3439C36.1563 9.52797 35.6585 8.37593 35.6547 8.36639C35.5406 8.09364 35.274 7.91626 34.9787 7.91626C34.9768 7.91626 34.9745 7.91626 34.9726 7.91626C34.6751 7.91893 34.4085 8.10165 34.2982 8.37784C34.2807 8.42209 32.5061 12.7914 29.7824 11.9324C29.1111 11.7207 28.4851 11.3007 28.9287 9.78928C29.0325 9.43565 28.8574 9.05991 28.5194 8.91228C28.1822 8.76427 27.787 8.89053 27.5974 9.20677C26.4084 11.1912 25.2262 12.1841 24.3508 11.9282C24.0136 11.8294 23.7954 11.6558 23.6634 11.3815C23.4036 10.8402 23.494 9.92317 23.9048 8.92868C24.0563 8.56171 23.8881 8.14095 23.5253 7.97958C23.1633 7.8186 22.7376 7.97501 22.5667 8.33359C20.7467 12.1498 19.2231 11.5459 18.7223 11.3476C18.6376 11.314 18.5575 11.277 18.4812 11.237C18.6078 5.82733 23.0652 1.46484 28.5263 1.46484H31.7039C36.7964 1.46484 41.1283 5.35011 41.6872 10.3607C41.4835 10.5919 41.2325 10.7582 40.925 10.8669C40.6217 10.9745 40.3223 11.0519 40.0339 11.0973C39.6345 11.1603 39.3618 11.5353 39.4247 11.935C39.488 12.3344 39.8626 12.6076 40.2624 12.5443C40.5477 12.4989 40.8388 12.431 41.1318 12.3409V12.7769C41.1318 12.9723 41.2096 13.1596 41.348 13.2969C41.4854 13.4331 41.6708 13.5094 41.8642 13.5094C41.879 13.5098 41.8935 13.509 41.9115 13.5082C43.2081 13.5139 44.2617 14.949 44.2617 16.7126C44.2617 18.4792 43.2039 19.9165 41.9038 19.9165C41.8203 19.9165 41.7349 19.91 41.6425 19.8959C41.2725 19.8395 40.9204 20.0706 40.8243 20.4319C39.7554 24.4595 36.085 27.272 31.898 27.272Z" fill="#BE8553"/>
<path d="M34.4018 15.3845C34.0475 15.3845 33.7607 15.6997 33.7607 16.0889V17.2442C33.7607 17.6335 34.0475 17.9486 34.4018 17.9486C34.7557 17.9486 35.0428 17.6335 35.0428 17.2442V16.0889C35.0428 15.6997 34.7557 15.3845 34.4018 15.3845Z" fill="#BE8553"/>
<path d="M23.5031 15.3845C23.0308 15.3845 22.6484 15.6997 22.6484 16.0889V17.2442C22.6484 17.6335 23.0308 17.9486 23.5031 17.9486C23.975 17.9486 24.3578 17.6335 24.3578 17.2442V16.0889C24.3578 15.6997 23.975 15.3845 23.5031 15.3845Z" fill="#BE8553"/>
<path d="M28.8456 18.8034H29.2659C29.6241 18.8034 29.9141 18.5109 29.9141 18.1505C29.9141 17.7898 29.6241 17.4977 29.2659 17.4977H29.0738V16.8921C29.0738 16.5313 28.7834 16.2393 28.4256 16.2393C28.0674 16.2393 27.7773 16.5313 27.7773 16.8921V17.7153C27.7773 18.3151 28.2564 18.8034 28.8456 18.8034Z" fill="#BE8553"/>
<path d="M31.9076 20.0854H26.2116C25.4257 20.0854 24.7861 20.7103 24.7861 21.4785C24.7861 23.7738 26.7032 25.641 29.0594 25.641C31.4161 25.641 33.3331 23.7738 33.3331 21.4785C33.3331 20.7107 32.6936 20.0854 31.9076 20.0854ZM29.0594 24.1379C27.5861 24.1379 26.38 23.0044 26.3201 21.589H31.7991C31.7389 23.0044 30.5332 24.1379 29.0594 24.1379Z" fill="#BE8553"/>
<path d="M15.3378 30.1525L14.1005 29.9672L13.549 28.8131C13.3699 28.4382 13.0092 28.2051 12.6073 28.2051C12.2054 28.2051 11.8447 28.4382 11.6656 28.8127L11.114 29.9672L9.87526 30.1529C9.47778 30.213 9.15273 30.4978 9.02661 30.897C8.90122 31.2942 9.00712 31.7389 9.2954 32.0287L10.1849 32.9238L9.97564 34.1854C9.90688 34.5973 10.0731 35.0207 10.3956 35.2616C10.5757 35.398 10.789 35.47 11.0118 35.47C11.1817 35.47 11.3508 35.4269 11.4979 35.346L12.6073 34.7437L13.713 35.344C13.863 35.4265 14.0321 35.47 14.2024 35.47C14.4256 35.47 14.6388 35.398 14.8161 35.2639C15.1415 35.0204 15.3077 34.5969 15.2389 34.1854L15.0297 32.9238L15.9184 32.0291C16.2071 31.7389 16.313 31.2942 16.1876 30.897C16.0626 30.4982 15.7371 30.2134 15.3378 30.1525ZM13.7806 32.1296C13.6111 32.2999 13.5339 32.5473 13.5743 32.7897L13.7225 33.6829L12.932 33.2536C12.8305 33.1981 12.7187 33.1708 12.6073 33.1708C12.4959 33.1708 12.3844 33.1981 12.2826 33.2536L11.4924 33.6829L11.6406 32.7897C11.6807 32.5473 11.6035 32.2999 11.4339 32.1292L10.8151 31.5066L11.6799 31.3771C11.909 31.3424 12.1072 31.1925 12.2109 30.976L12.6073 30.1467L13.0037 30.976C13.1073 31.1929 13.3059 31.3428 13.535 31.3771L14.3994 31.5066L13.7806 32.1296Z" fill="#BE8553"/>
<path d="M5.89782 46.7146C6.09218 46.9039 6.34979 47.0085 6.62311 47.0085C6.89606 47.0085 7.15367 46.9043 7.34841 46.715L9.98276 44.1491C10.4343 43.7094 10.6831 43.1231 10.6831 42.4978C10.6831 41.8726 10.4343 41.2863 9.98276 40.8465C9.53501 40.4106 8.94121 40.1709 8.3106 40.1709C7.68 40.1709 7.08581 40.411 6.63845 40.8465L6.62311 40.8614L6.60816 40.8465C6.1608 40.411 5.56661 40.1709 4.93601 40.1709C4.30502 40.1709 3.71122 40.4106 3.26385 40.8465C2.81227 41.2863 2.56348 41.8726 2.56348 42.4978C2.56348 43.1231 2.81227 43.7094 3.26385 44.1495L5.89782 46.7146ZM4.29275 41.8943C4.46334 41.7279 4.69182 41.6363 4.93562 41.6363C5.17943 41.6363 5.40791 41.7279 5.57888 41.8943L6.10828 42.4104C6.39426 42.6887 6.85159 42.6887 7.13756 42.4104L7.66735 41.8947C7.83832 41.7283 8.06641 41.6363 8.3106 41.6363C8.55441 41.6363 8.7825 41.7279 8.95348 41.8943C9.11947 42.0558 9.2107 42.2703 9.2107 42.4978C9.21108 42.7253 9.11947 42.9398 8.95348 43.1013L6.62311 45.3706L4.29275 43.1013C4.12676 42.9398 4.03514 42.7253 4.03553 42.4978C4.03553 42.2703 4.12676 42.0558 4.29275 41.8943Z" fill="#BE8553"/>
<path d="M42.1335 18.8034C42.2425 18.8034 42.3533 18.776 42.456 18.7179C43.9076 17.8978 43.67 16.1799 43.3419 15.3861C43.1929 15.026 42.7929 14.8598 42.4482 15.016C42.1038 15.1718 41.9452 15.59 42.0942 15.9501C42.113 15.9949 42.5409 17.0548 41.8097 17.4678C41.4794 17.6543 41.3566 18.0855 41.535 18.4308C41.6578 18.6683 41.8918 18.8034 42.1335 18.8034Z" fill="#BE8553"/>
</svg>
