<svg width="12" height="16" viewBox="0 0 12 16" fill="none" xmlns="http://www.w3.org/2000/svg">
<path d="M5.62963 0C2.52547 0 0 2.49492 0 5.56152C0 9.41592 5.63517 16 5.63517 16C5.63517 16 11.2593 9.22637 11.2593 5.56152C11.2593 2.49492 8.73388 0 5.62963 0ZM7.32821 7.18994C6.85985 7.65254 6.24479 7.88389 5.62963 7.88389C5.01457 7.88389 4.39932 7.65254 3.93115 7.18994C2.99453 6.26475 2.99453 4.75928 3.93115 3.83398C4.38469 3.38574 4.98798 3.13887 5.62963 3.13887C6.27128 3.13887 6.87448 3.38584 7.32821 3.83398C8.26483 4.75928 8.26483 6.26475 7.32821 7.18994Z" fill="#BE8553"/>
</svg>
