<svg width="50" height="40" viewBox="0 0 50 40" fill="none" xmlns="http://www.w3.org/2000/svg">
<path d="M49.0196 31.1257C49.5611 31.1257 50 30.6866 50 30.1453V20.0473C50 19.5059 49.561 19.0669 49.0196 19.0669H16.1673C18.6964 17.2147 20.3423 14.2242 20.3423 10.8562C20.3423 5.24814 15.7798 0.685547 10.1717 0.685547C4.56299 0.685547 0 5.24805 0 10.8561V29.2384C0 34.8464 4.56299 39.409 10.1716 39.409H49.0196C49.5611 39.409 50 38.9699 50 38.4286V36.8119C50 36.2705 49.561 35.8315 49.0196 35.8315C48.4782 35.8315 48.0393 36.2706 48.0393 36.8119V37.4481H40.1961V21.0276H48.0393V30.1453C48.0393 30.6867 48.4781 31.1257 49.0196 31.1257ZM10.1716 2.64629C14.6984 2.64629 18.3813 6.3291 18.3813 10.8561C18.3813 15.3835 14.6984 19.0668 10.1716 19.0668C5.64414 19.0668 1.96084 15.3835 1.96084 10.8561C1.96074 6.3291 5.64414 2.64629 10.1716 2.64629ZM38.2353 37.4482H34.7059V34.8296C34.7059 34.2882 34.2669 33.8492 33.7255 33.8492C33.1841 33.8492 32.7451 34.2883 32.7451 34.8296V37.4482H29.3461V36.6295C29.3461 36.0881 28.9071 35.6491 28.3657 35.6491C27.8243 35.6491 27.3854 36.0882 27.3854 36.6295V37.4482H23.9873V34.8296C23.9873 34.2882 23.5483 33.8492 23.0069 33.8492C22.4654 33.8492 22.0266 34.2883 22.0266 34.8296V37.4482H18.6275V36.6295C18.6275 36.0881 18.1886 35.6491 17.6472 35.6491C17.1057 35.6491 16.6668 36.0882 16.6668 36.6295V37.4482H13.2678V34.8296C13.2678 34.2882 12.8288 33.8492 12.2874 33.8492C11.7459 33.8492 11.307 34.2883 11.307 34.8296V37.4482H10.1718C9.38691 37.4482 8.62832 37.3354 7.90908 37.1286V35.9776C7.90908 35.4362 7.47012 34.9973 6.92871 34.9973C6.38721 34.9973 5.94834 35.4363 5.94834 35.9776V36.2758C3.56133 34.8382 1.96104 32.222 1.96104 29.2384V16.8522C3.81318 19.3816 6.80371 21.0276 10.1718 21.0276H11.307V23.6463C11.307 24.1877 11.746 24.6267 12.2874 24.6267C12.8289 24.6267 13.2678 24.1876 13.2678 23.6463V21.0276H22.0266V23.6463C22.0266 24.1877 22.4655 24.6267 23.0069 24.6267C23.5484 24.6267 23.9873 24.1876 23.9873 23.6463V21.0276H32.7451V23.6463C32.7451 24.1877 33.1841 24.6267 33.7255 24.6267C34.2669 24.6267 34.7059 24.1876 34.7059 23.6463V21.0276H38.2353V37.4482Z" fill="#32343B"/>
<path d="M44.1178 26.5913C42.6582 26.5913 41.4707 27.7787 41.4707 29.2384C41.4707 30.698 42.6581 31.8854 44.1178 31.8854C45.5773 31.8854 46.7648 30.698 46.7648 29.2384C46.7648 27.7787 45.5773 26.5913 44.1178 26.5913ZM44.1178 29.9246C43.7394 29.9246 43.4315 29.6167 43.4315 29.2384C43.4315 28.8601 43.7394 28.5521 44.1178 28.5521C44.4962 28.5521 44.804 28.8601 44.804 29.2384C44.804 29.6167 44.4962 29.9246 44.1178 29.9246Z" fill="#32343B"/>
</svg>
