<svg width="62" height="60" viewBox="0 0 62 60" fill="none" xmlns="http://www.w3.org/2000/svg">
<path d="M35.9214 46.9344L29.3726 45.462L23.7298 38.1785H3.13378V41.2411C2.85587 41.1123 2.54941 41.0355 2.22356 41.0355C1.02176 41.0355 0.0439453 42.0132 0.0439453 43.2151V49.3414C0.0439453 50.5433 1.0217 51.5211 2.22356 51.5211C2.54941 51.5211 2.85587 51.4442 3.13378 51.3155V54.9855H6.58181C6.88761 56.9739 8.60505 58.503 10.6776 58.503C12.7502 58.503 14.4676 56.9739 14.7734 54.9856H25.8285C26.1343 56.9739 27.8518 58.5031 29.9243 58.5031C31.9969 58.5031 33.7141 56.9739 34.0198 54.9856H37.316V48.9117C37.316 48.021 36.7557 47.2267 35.9214 46.9344ZM2.22356 50.2517C1.7218 50.2517 1.31335 49.8433 1.31335 49.3415V43.2152C1.31335 42.7134 1.7218 42.305 2.22356 42.305C2.72533 42.305 3.13378 42.7134 3.13378 43.2152V49.3415C3.13378 49.8433 2.72533 50.2517 2.22356 50.2517ZM10.6776 57.2337C9.08965 57.2337 7.79788 55.942 7.79788 54.354C7.79788 52.766 9.08958 51.4742 10.6776 51.4742C12.2656 51.4742 13.5573 52.7659 13.5573 54.354C13.5573 55.942 12.2656 57.2337 10.6776 57.2337ZM29.9243 57.2337C28.3364 57.2337 27.0446 55.942 27.0446 54.354C27.0446 52.766 28.3363 51.4742 29.9243 51.4742C31.512 51.4742 32.8037 52.7659 32.8037 54.354C32.8037 55.942 31.512 57.2337 29.9243 57.2337ZM36.0466 53.7162H34.0188C33.7104 51.7309 31.9946 50.2049 29.9243 50.2049C27.8539 50.2049 26.1378 51.7309 25.8294 53.7162H14.7725C14.4641 51.7309 12.748 50.2049 10.6776 50.2049C8.60722 50.2049 6.89116 51.7309 6.58273 53.7162H4.40318C4.40318 48.7553 4.40318 44.3961 4.40318 39.4479H23.1076L28.6494 46.6007L35.5315 48.1437C35.8408 48.2658 36.0466 48.5705 36.0466 48.9117V53.7162Z" fill="#BE8553"/>
<path d="M15.4756 41.0332V47.9786H27.2107L21.9233 41.0332H15.4756ZM16.745 46.7092V42.3025H21.2941L24.6489 46.7092H16.745Z" fill="#BE8553"/>
<path d="M6.31934 47.9786H13.8241V41.0332H6.31934V47.9786ZM7.58874 42.3026H12.5548V46.7093H7.58874V42.3026Z" fill="#BE8553"/>
<path d="M57.7485 21.5175L61.816 17.6231L56.9656 15.2694L47.3764 16.4296V13.1028L45.0189 10.5035L42.7122 13.1068V16.9939L38.4695 17.5072L39.2281 23.7581L42.7122 23.3365V25.0802H33.8091L29.2754 28.0041L33.7849 31.3785H42.7122V33.2512H35.147L30.6133 36.1681L35.1218 39.5495H42.7122V49.2413H38.3322V50.5107H60.9306V49.2413H47.3764V39.5497H50.5567V33.2513H47.3764V31.3785H52.4369V25.0802H47.3764V22.7724L57.7485 21.5175ZM46.107 49.2415H43.9816V39.5497H46.107V49.2415ZM49.2872 34.5207V38.2803H47.3763H42.7122H35.5452L32.8354 36.2481L35.5201 34.5207H42.7122H47.3763H49.2872ZM46.107 33.2513H43.9816V31.3785H46.107V33.2513ZM51.1675 26.3496V30.1092H47.3764H42.7122H34.207L31.4975 28.0817L34.1829 26.3496H42.7122H47.3764H51.1675ZM43.9816 25.0802V23.1858L46.107 22.9288V25.0802H43.9816ZM43.9816 16.8403V13.5884L45.0301 12.4052L46.107 13.5924V16.5832C45.8679 16.6121 43.8945 16.8508 43.9816 16.8403ZM39.8827 18.6148C46.3294 17.835 50.4895 17.3317 56.7475 16.5747L59.62 17.9684L57.1758 20.3082L40.3358 22.3462L39.8827 18.6148Z" fill="#BE8553"/>
<path d="M39.5576 27.4714H49.172V28.7406H39.5576V27.4714Z" fill="#BE8553"/>
<path d="M36.8438 27.4714H38.3326V28.7406H36.8438V27.4714Z" fill="#BE8553"/>
<path d="M39.5576 35.7726H46.8612V37.0418H39.5576V35.7726Z" fill="#BE8553"/>
<path d="M36.8438 35.7726H38.3326V37.0418H36.8438V35.7726Z" fill="#BE8553"/>
<path d="M45.7051 20.426L45.5439 19.167L52.789 18.2394L52.9502 19.4985L45.7051 20.426Z" fill="#BE8553"/>
<path d="M43.3896 20.724L43.2285 19.4649L44.3296 19.324L44.4908 20.583L43.3896 20.724Z" fill="#BE8553"/>
<path d="M11.627 0H12.8962V3.71095H11.627V0Z" fill="#BE8553"/>
<path d="M4.19824 3.60303L5.09571 2.70556L7.71975 5.3296L6.82228 6.22707L4.19824 3.60303Z" fill="#BE8553"/>
<path d="M1.49316 10.1339H5.20412V11.4031H1.49316V10.1339Z" fill="#BE8553"/>
<path d="M7.72266 16.2098L5.09862 18.8339L4.20115 17.9364L6.82519 15.3124L7.72266 16.2098Z" fill="#BE8553"/>
<path d="M16.8008 5.32947L19.4248 2.70543L20.3223 3.60289L17.6982 6.22693L16.8008 5.32947Z" fill="#BE8553"/>
<path d="M30.5001 15.8705C30.5001 13.9236 28.9165 12.3397 26.9696 12.3397H25.333C24.7758 9.65367 22.4102 7.69251 19.613 7.69251C18.4958 7.69251 17.4502 8.0085 16.5581 8.554C15.7413 6.96052 14.1087 5.93469 12.2619 5.93469C9.59785 5.93469 7.43066 8.10188 7.43066 10.7659C7.43066 12.1589 8.03035 13.4731 9.05814 14.3839C8.84692 14.8364 8.72552 15.339 8.72552 15.8705C8.72552 17.8133 10.3091 19.3939 12.256 19.3939H15.2433V18.1245H12.256C11.0092 18.1245 9.99492 17.1133 9.99492 15.8705C9.99492 14.6234 11.0092 13.6091 12.256 13.6091H14.9975L15.0589 13.0425C15.3105 10.7163 17.2682 8.96192 19.613 8.96192C21.9535 8.96192 23.9084 10.7163 24.16 13.0425L24.2214 13.6091H26.9696C28.2164 13.6091 29.2307 14.6234 29.2307 15.8705C29.2307 17.1133 28.2164 18.1245 26.9696 18.1245H21.7687V19.3939H26.9696C28.9164 19.3939 30.5001 17.8134 30.5001 15.8705ZM13.8858 12.3397H12.256C11.3028 12.3397 10.4384 12.7209 9.8025 13.3369C9.10681 12.6706 8.7 11.7465 8.7 10.766C8.7 8.80205 10.2979 7.20416 12.2618 7.20416C13.7046 7.20416 14.9653 8.05499 15.526 9.35097C14.713 10.1429 14.1281 11.1726 13.8858 12.3397Z" fill="#BE8553"/>
<path d="M17.1982 18.1246H19.2257V19.3938H17.1982V18.1246Z" fill="#BE8553"/>
<path d="M49.6484 7.09515H46.394V8.36456H49.6484C50.9974 8.36456 52.0951 7.26903 52.0951 5.92215C52.0951 4.57311 50.9974 3.47574 49.6484 3.47574H48.8125C48.373 1.78361 46.8424 0.567871 45.0449 0.567871C43.2453 0.567871 41.7134 1.78368 41.2734 3.47574H40.4419C39.0928 3.47574 37.9951 4.57311 37.9951 5.92215C37.9951 7.26903 39.0928 8.36456 40.4419 8.36456H42.3109V7.09515H40.4419C39.7926 7.09515 39.2645 6.56892 39.2645 5.92215C39.2645 5.27321 39.7926 4.74514 40.4419 4.74514H42.3705L42.4318 4.1786C42.5762 2.84383 43.6996 1.83721 45.045 1.83721C46.3879 1.83721 47.5097 2.84383 47.6541 4.1786L47.7155 4.74514H49.6484C50.2977 4.74514 50.8258 5.27321 50.8258 5.92215C50.8257 6.56892 50.2976 7.09515 49.6484 7.09515Z" fill="#BE8553"/>
<path d="M43.5332 7.09509H44.8018V8.3643H43.5332V7.09509Z" fill="#BE8553"/>
<path d="M34.2734 58.7308H36.1772V60H34.2734V58.7308Z" fill="#BE8553"/>
<path d="M22.8486 58.7308H24.7524V60H22.8486V58.7308Z" fill="#BE8553"/>
<path d="M30.4658 58.7308H32.3696V60H30.4658V58.7308Z" fill="#BE8553"/>
<path d="M45.6982 58.7308H47.6021V60H45.6982V58.7308Z" fill="#BE8553"/>
<path d="M26.6572 58.7308H28.561V60H26.6572V58.7308Z" fill="#BE8553"/>
<path d="M11.4248 58.7308H13.3286V60H11.4248V58.7308Z" fill="#BE8553"/>
<path d="M0 58.7308H1.90381V60H0V58.7308Z" fill="#BE8553"/>
<path d="M7.61621 58.7308H9.52002V60H7.61621V58.7308Z" fill="#BE8553"/>
<path d="M15.2324 58.7308H17.1362V60H15.2324V58.7308Z" fill="#BE8553"/>
<path d="M3.80859 58.7308H5.71241V60H3.80859V58.7308Z" fill="#BE8553"/>
<path d="M19.041 58.7308H20.9448V60H19.041V58.7308Z" fill="#BE8553"/>
<path d="M53.3145 58.7308H55.2183V60H53.3145V58.7308Z" fill="#BE8553"/>
<path d="M41.8896 58.7308H43.7935V60H41.8896V58.7308Z" fill="#BE8553"/>
<path d="M38.082 58.7308H39.9858V60H38.082V58.7308Z" fill="#BE8553"/>
<path d="M49.5068 58.7308H51.4107V60H49.5068V58.7308Z" fill="#BE8553"/>
<path d="M57.123 58.7308H59.0269V60H57.123V58.7308Z" fill="#BE8553"/>
</svg>
