<svg width="60" height="60" viewBox="0 0 60 60" fill="none" xmlns="http://www.w3.org/2000/svg">
<path d="M1.5 60H58.5C58.8978 60 59.2794 59.842 59.5607 59.5607C59.842 59.2794 60 58.8978 60 58.5V22.5C60 22.1022 59.842 21.7206 59.5607 21.4393C59.2794 21.158 58.8978 21 58.5 21H51V7.5C51 7.10218 50.842 6.72064 50.5607 6.43934C50.2794 6.15804 49.8978 6 49.5 6H42V4.5C42 3.30653 41.5259 2.16193 40.682 1.31802C39.8381 0.474106 38.6935 0 37.5 0H22.5C21.3065 0 20.1619 0.474106 19.318 1.31802C18.4741 2.16193 18 3.30653 18 4.5V6H10.5C10.1022 6 9.72064 6.15804 9.43934 6.43934C9.15804 6.72064 9 7.10218 9 7.5V21H1.5C1.10218 21 0.720645 21.158 0.43934 21.4393C0.158036 21.7206 0 22.1022 0 22.5V58.5C0 58.8978 0.158036 59.2794 0.43934 59.5607C0.720645 59.842 1.10218 60 1.5 60ZM51 24H57V57H51V24ZM34.5 57H25.5V46.5H34.5V57ZM21 4.5C21 4.10218 21.158 3.72064 21.4393 3.43934C21.7206 3.15804 22.1022 3 22.5 3H37.5C37.8978 3 38.2794 3.15804 38.5607 3.43934C38.842 3.72064 39 4.10218 39 4.5V19.5C39 19.8978 38.842 20.2794 38.5607 20.5607C38.2794 20.842 37.8978 21 37.5 21H22.5C22.1022 21 21.7206 20.842 21.4393 20.5607C21.158 20.2794 21 19.8978 21 19.5V4.5ZM12 9H18V19.5C18 20.6935 18.4741 21.8381 19.318 22.682C20.1619 23.5259 21.3065 24 22.5 24H37.5C38.6935 24 39.8381 23.5259 40.682 22.682C41.5259 21.8381 42 20.6935 42 19.5V9H48V57H37.5V45C37.5 44.6022 37.342 44.2206 37.0607 43.9393C36.7794 43.658 36.3978 43.5 36 43.5H24C23.6022 43.5 23.2206 43.658 22.9393 43.9393C22.658 44.2206 22.5 44.6022 22.5 45V57H12V9ZM3 24H9V57H3V24Z" fill="#BE8553"/>
<path d="M25.5 13.5H28.5V16.5C28.5 16.8978 28.658 17.2794 28.9393 17.5607C29.2206 17.842 29.6022 18 30 18C30.3978 18 30.7794 17.842 31.0607 17.5607C31.342 17.2794 31.5 16.8978 31.5 16.5V13.5H34.5C34.8978 13.5 35.2794 13.342 35.5607 13.0607C35.842 12.7794 36 12.3978 36 12C36 11.6022 35.842 11.2206 35.5607 10.9393C35.2794 10.658 34.8978 10.5 34.5 10.5H31.5V7.5C31.5 7.10218 31.342 6.72064 31.0607 6.43934C30.7794 6.15804 30.3978 6 30 6C29.6022 6 29.2206 6.15804 28.9393 6.43934C28.658 6.72064 28.5 7.10218 28.5 7.5V10.5H25.5C25.1022 10.5 24.7206 10.658 24.4393 10.9393C24.158 11.2206 24 11.6022 24 12C24 12.3978 24.158 12.7794 24.4393 13.0607C24.7206 13.342 25.1022 13.5 25.5 13.5Z" fill="#BE8553"/>
<path d="M19.5 31.5H22.5C22.8978 31.5 23.2794 31.342 23.5607 31.0607C23.842 30.7794 24 30.3978 24 30C24 29.6022 23.842 29.2206 23.5607 28.9393C23.2794 28.658 22.8978 28.5 22.5 28.5H19.5C19.1022 28.5 18.7206 28.658 18.4393 28.9393C18.158 29.2206 18 29.6022 18 30C18 30.3978 18.158 30.7794 18.4393 31.0607C18.7206 31.342 19.1022 31.5 19.5 31.5Z" fill="#BE8553"/>
<path d="M24 37.5C24 37.1022 23.842 36.7206 23.5607 36.4393C23.2794 36.158 22.8978 36 22.5 36H19.5C19.1022 36 18.7206 36.158 18.4393 36.4393C18.158 36.7206 18 37.1022 18 37.5C18 37.8978 18.158 38.2794 18.4393 38.5607C18.7206 38.842 19.1022 39 19.5 39H22.5C22.8978 39 23.2794 38.842 23.5607 38.5607C23.842 38.2794 24 37.8978 24 37.5Z" fill="#BE8553"/>
<path d="M28.5 31.5H31.5C31.8978 31.5 32.2794 31.342 32.5607 31.0607C32.842 30.7794 33 30.3978 33 30C33 29.6022 32.842 29.2206 32.5607 28.9393C32.2794 28.658 31.8978 28.5 31.5 28.5H28.5C28.1022 28.5 27.7206 28.658 27.4393 28.9393C27.158 29.2206 27 29.6022 27 30C27 30.3978 27.158 30.7794 27.4393 31.0607C27.7206 31.342 28.1022 31.5 28.5 31.5Z" fill="#BE8553"/>
<path d="M28.5 39H31.5C31.8978 39 32.2794 38.842 32.5607 38.5607C32.842 38.2794 33 37.8978 33 37.5C33 37.1022 32.842 36.7206 32.5607 36.4393C32.2794 36.158 31.8978 36 31.5 36H28.5C28.1022 36 27.7206 36.158 27.4393 36.4393C27.158 36.7206 27 37.1022 27 37.5C27 37.8978 27.158 38.2794 27.4393 38.5607C27.7206 38.842 28.1022 39 28.5 39Z" fill="#BE8553"/>
<path d="M37.5 31.5H40.5C40.8978 31.5 41.2794 31.342 41.5607 31.0607C41.842 30.7794 42 30.3978 42 30C42 29.6022 41.842 29.2206 41.5607 28.9393C41.2794 28.658 40.8978 28.5 40.5 28.5H37.5C37.1022 28.5 36.7206 28.658 36.4393 28.9393C36.158 29.2206 36 29.6022 36 30C36 30.3978 36.158 30.7794 36.4393 31.0607C36.7206 31.342 37.1022 31.5 37.5 31.5Z" fill="#BE8553"/>
<path d="M37.5 39H40.5C40.8978 39 41.2794 38.842 41.5607 38.5607C41.842 38.2794 42 37.8978 42 37.5C42 37.1022 41.842 36.7206 41.5607 36.4393C41.2794 36.158 40.8978 36 40.5 36H37.5C37.1022 36 36.7206 36.158 36.4393 36.4393C36.158 36.7206 36 37.1022 36 37.5C36 37.8978 36.158 38.2794 36.4393 38.5607C36.7206 38.842 37.1022 39 37.5 39Z" fill="#BE8553"/>
</svg>
