<svg xmlns="http://www.w3.org/2000/svg" fill="#be8553" xmlns:xlink="http://www.w3.org/1999/xlink" id="Layer_1" x="0px" y="0px" viewBox="0 0 512 512" style="enable-background:new 0 0 512 512;" xml:space="preserve">
	<g>
		<g>
			<g>
				<path d="M368.126,20.125c-57.234,0-109.132,34.316-131.839,86.25H11.623C5.204,106.375,0,111.579,0,117.998v362.253    c0,6.419,5.204,11.623,11.623,11.623h442.753c6.419,0,11.623-5.204,11.623-11.623V286.207C496.94,227.637,512,187.63,512,163.999    C512,84.667,447.459,20.125,368.126,20.125z M23.246,336.624h45.755v86.004H23.246V336.624z M442.753,468.629H23.246v-0.001    v-22.753h120.627v-23.246H92.247v-97.628c0-6.419-5.204-11.623-11.623-11.623H23.246V175.622h74.504v22.877h23.246v-22.877    h68.878v-23.246H23.246v-22.755H228.41c-2.763,11.262-4.159,22.771-4.159,34.378c0,28.267,22.758,82.674,67.641,161.709    c21.062,37.088,42.309,71.267,54.944,91.17H212.875c-6.273,0-11.377-5.104-11.377-11.377V250.251    c0-19.092-15.532-34.624-34.624-34.624h-69v23.246h69c6.273,0,11.378,5.105,11.378,11.378v155.251    c0,19.091,15.532,34.623,34.623,34.623h155.252c3.914,0,7.564-1.969,9.714-5.24c0.392-0.596,32.502-49.57,64.913-106.405V468.629    z M443.538,278.948c-27.172,51.138-59.592,103.231-75.44,128.126c-40.975-64.103-120.601-197.981-120.601-243.074    c0-14.148,2.475-28.135,7.345-41.546c17.307-47.3,62.831-79.082,113.283-79.082c66.515,0,120.627,54.114,120.627,120.627    C488.753,177.705,480.909,208.772,443.538,278.948z">
				</path>
				<path d="M368.126,94.876c-34.944,0-63.373,28.429-63.373,63.373s28.429,63.373,63.373,63.373s63.373-28.429,63.373-63.373    S403.07,94.876,368.126,94.876z M368.125,198.376c-22.125,0-40.127-18.001-40.127-40.127s18.001-40.127,40.127-40.127    s40.127,18.001,40.127,40.127S390.251,198.376,368.125,198.376z">
				</path>
				<rect x="57.623" y="215.621" width="23" height="23.246">
				</rect>
			</g>
		</g>
	</g>
	<g>
	</g>
	<g>
	</g>
	<g>
	</g>
	<g>
	</g>
	<g>
	</g>
	<g>
	</g>
	<g>
	</g>
	<g>
	</g>
	<g>
	</g>
	<g>
	</g>
	<g>
	</g>
	<g>
	</g>
	<g>
	</g>
	<g>
	</g>
	<g>
	</g>
</svg>
